<?xml version="1.0" encoding="UTF-8"?>
<svg id="Capa_1" data-name="Capa 1" xmlns="http://www.w3.org/2000/svg" viewBox="0 0 595.28 595.28">
  <defs>
    <style>
      .cls-1 {
        fill: #d74b29;
      }

      .cls-2 {
        fill: #e49e2f;
      }

      .cls-3 {
        fill: #446d55;
      }
    </style>
  </defs>
  <g>
    <path class="cls-1" d="M224.14,112.02c1.15,1.78,2.91,4.89,4.47,6.18,1.25,1.02,1.87.62,3.13,1.15,2.19.92,4.15,4.12,5,6.27.21.53.86,1.09.78,1.89.64,29.26-.08,48.89-.08,83.32.35,13.02-7.94,15.2-15.12,15.75-12.01.91-25.99-.14-38.27-.04-9.82.08-19.82.46-29.65.44-6.79,0-13.46-.1-20.15-.42-1.95-4.41-3.77-6.24-3.69-11.74.07-5.18,2.58-7.45,4.3-11.75,3.25-8.17,2.53-10.2-.2-18.12,1.23.23.79-.63.81-1.42.69-19.3,12.8-39.18,32.2-43.62,12.87-2.94,28.71,1.95,35.72,13.73,5.26,8.83,6.03,18.01,2.03,27.6-5.72,10.53-19.31,16.23-29.09,7.43-5.77-5.2-6.83-15.44,1.16-18.62,5.98-2.38,3.83,1.99,7.78,3.39,4.17,1.47,7.91.15,9.36-4.15,2.35-6.97-4.3-13.55-10.75-14.63-24.42-4.1-37.75,27.74-19.14,44.52,23.14,20.86,58.32,3.3,60.22-26.77,2.5-39.54-39.51-60.94-72.28-43.14-14.08,7.65-19.07,16.8-26.04,30.48-.34.66-.24,1.4-1.34,1.32-3.56-8.93-7.1-20.41-12.18-28.24-.24-.36-.72-.72-1.09-.96-2.82-1.8-6.05-5.94-8.04-9.15-.95-1.53-4.27-6.39-1.86-7.59,5.15-.34,11.12-3.07,16.05-3.52,2.37-.22,5.63.02,8.17,0,32.57-.29,65.07.87,97.8.43"/>
    <path class="cls-2" d="M417.34,287.12c.2,0,.81-.4,1.4-.41,2.49-.05,5-.01,7.49.06,1.63,4.65,3.35,9.28,5.27,13.82,3.04,7.18,6.53,14.43,9.95,21.25,3.71,7.4,7.81,14.58,11.34,22.07.94.14,2.26.32,2.99-.33l19.93-35.85,20.95,36.66,7.32-11.12h.41c.13,1.63.88,3.05.85,4.73-.06,3.16-2.34,6.23-2.48,9.5-.08,1.87.52,3.03.82,4.72.02.13-.03.28,0,.41l-85.82.83c.35-3.64.48-7.27.43-10.94-.16-10.26-.71-20.89-.83-31.09-.01-.94,0-2.03-.02-3.07-.1-7.07.11-14.17.02-21.23"/>
    <path class="cls-2" d="M104.56,415.25l118.9-.02.71,2.28c-.83,5.72.25,11.46-.09,17.25l-124.81.26c.93-3.55,2.01-7.18,2.85-10.71.67-2.81,1.98-6.43,2.44-9.06"/>
    <path class="cls-1" d="M154.18,268.99c-2.45-4.33-3.79-8.33-6.03-12.64-2.13-4.09-3.79-6.95-5.76-11.26l99.24.62v21.83c0,.07-.63.73-.82.82-28.07.66-56.28-.15-84.4.2-.69,0-1.81-.26-2.23.42"/>
    <path class="cls-1" d="M388.86,151.16l-59.59,79.93-.2-50.68c3.35-.06,10.99.71,13.2-2.08,1.66-2.09.93-5.21,1.89-6.74.56-.9,2.32-1.21,3.24-2.08,2.44-2.3,2.34-7.86,2.93-11.03.18-.96,1.08-1.67.65-2.94-.21-.62-1.66-.68-1.48-2.05.31-2.34,4.38-3.06,6.25-3.11,2.59-.07,6.26.75,8.88.8,8.04.15,16.19.09,24.22-.02"/>
    <path class="cls-1" d="M172.48,287.94l-.81,111.24c-2.08-.01-14.85.27-15.48-.18-.17-.12-.28-.29-.33-.49-.01-24.3-.19-48.61-.03-72.92,0-.76-.43-1.29-.43-1.4-.04-.7,1.88-4,2.24-5.35,2.4-8.88,3.24-21.83,2.23-30.91h12.61Z"/>
    <path class="cls-2" d="M314.43,180.41c.03,5.15-.03,10.31-.02,15.47.02,12.8-.05,26.07,0,38.73.06,13.16,1.7,29.52.42,42.41-1.09,10.91-14.8,11.77-15.85,1.24-.43-4.26.06-9.6.01-14.02-.25-21.95-.09-44.16,0-66.3.02-5.88-.64-11.65-.43-17.53,5.17.26,10.65-.04,15.86,0"/>
    <path class="cls-1" d="M276.61,168.05c1.41,2.92,2.74,6.59,5.69,7.83,1.15.48,1.98,1.04,3.11,1.62-.36,15.81.31,32.23.15,48.03,0,.69.26,1.83-.41,2.26-.22-2.02-3.09-3.23-4.67-4.54-5.71-4.78-11.32-9.69-17.11-14.39-.9-.73-1.94-1.76-3.03-2.08-.02-12.9.02-25.83,0-38.73h16.27Z"/>
    <path class="cls-1" d="M138.72,338.2l-.61,60.98h-15.46c-.34,0-.72-1-.63-1.42.14-13.82-.28-27.68.43-41.43,1.86-2.47,4.39-4.44,6.27-7.04,4.54-6.26,3.41-6.29,10-11.09"/>
    <path class="cls-1" d="M118.51,76.91c-.63.7-1.22,3.46-1.38,3.57-.15.11-2.26-.37-3.52.33-3.06,1.71-1.18,7.06-1.31,9.79-.06,1.2-.75,2.58-.74,3.37.01,1.12,1.27.92.24,3.15-1.12,2.43-4.54,4.2-7.11,4.37-2.52.17-1.95-1.84-2.9-3.57-1.35-2.44-1.12-2.36-2.01-4.52-.37-.91-1.63-1.52-1.97-2.57-.92-2.89,1.27-4.26,1.04-5.96-.14-1.06-1.46-2.06-1.95-3.02-.4-.78-.34-1.79-.73-2.56-.9-1.75-4.1-3.32-2.81-6.2,1.11-2.48,5.98-.98,8.46-2.55,1.94-1.23,3.71-5.44,4.02-5.61.43-.25,1.81-.08,2.69-.37,3.71-1.22,4.45-2.51,6.98-4.88,3.78-3.55,7.94-4.7,13.2-3.88,4.55.71,3.03,4.36,3.66,7.41.34,1.65,2.53,3.57,2.22,4.65-.39,1.38-3.11.95-4.14,1.19-2.09.49-2.2,1.81-3.4,2.73-2.37,1.81-6.72,3.07-8.56,5.13"/>
    <path class="cls-1" d="M444.59,247.15c.73,1.54.89,3.44,1.89,4.84.67.94,2.07,1.37,2.76,2.19,2.57,3.08,2.35,7.67,3.08,11.09l-19.93-17.72c-.11-.68.55-.38,1.01-.41,3.71-.18,7.48.14,11.19,0"/>
    <path class="cls-2" d="M479.16,511.24c3.67,1.01,7.87-.74,10.25,3.42,2.42,4.22.06,8.84-3.33,11.63-5.34,4.4-19.35,5.1-26.52,6.51-6.8,1.34-32.21,8.02-37.04,6.78-.82-.21-2.08-1.49-3.14-1.77-2.24-.59-3.54.2-5.49.23-8.42.17-16.82.28-25.25.38-1.23.01-2.25.6-3.61.41-3.54-.48-9.18-4.91-14.88-5.76-8.73-1.3-18.17.09-27.04-.41-7.72-.44-15.46-2.32-23.19-2.88-6.62-.47-20.46.76-25.69-1.99-3.53-1.85-12.13-12.62-15.18-16.14l2.63-.43,197.49.02Z"/>
    <path class="cls-1" d="M459.23,490.23c1.25,1.41,3.13,2.82,4.48,4.31,5.1,5.62,10.17,11.25,15.45,16.7l-197.49-.02-2.63.43c-1.62-1.88-3.09-4.31-4.61-6.04-.72-.82-3.6-3.81-4.34-4.26,1-1.43,0-10.71.4-11.13h188.73Z"/>
    <path class="cls-1" d="M91.95,451.5h29.29s.41,50.26.41,50.26c-6.62.79-9.27-.29-15.26-.82-3.06-.27-13.75.75-15.47-.81-.46-.41-.62-.83-.6-1.45.07-8.18-.02-16.36.02-24.53.03-5.7-.62-13.33,0-18.75.21-1.85,1.01-2.44,1.63-3.91"/>
    <path class="cls-3" d="M417.34,287.12c.09,7.07-.12,14.16-.02,21.23.01,1.04,0,2.13.02,3.07l-23.6,22.87,2.03,2.47,21.78,19.17c-.43,4.46.45,8.81.1,13.29-.43,1.48-10.86,10.11-12.79,11.97-1.84,1.78-3.72,4.16-5.63,6.05-.9.9-5.61,4.68-5.47,5.49,7.59,8.01,16.17,14.94,24.17,22.52.1,1.68.46,3.57.57,5.19.04.56-.29,1.1-.28,1.6.04,1.65.65,3.56.31,5.35-.44,2.35-14.71,13.71-16.87,16.7l-1.71.94-6.2,7.03,24.4,22.69c.98,1.72-.54,4.72-.02,6.82h-16.06c-.13,0-.46.49-.82.05-10.16-9.06-19.72-18.82-29.88-27.88-.35-.31-.73-.6-1.23-.6l30.88-30.63-31.29-29.72,31.72-30.08-32.12-27.8,32.53-29.68-18.3-18.12c3.32-.08,6.66.09,9.98.01,8.01-.18,15.77.04,23.78-.02"/>
    <path class="cls-2" d="M172.48,287.94c6.1,0,12.21,0,18.31,0v111.45l-19.12-.2.81-111.24Z"/>
    <path class="cls-3" d="M408.13,189.32c8.51,11.65,17.88,23.33,25.8,35.46.38.57,1,1.01.9,1.77l-70.77.83,34.97-49.25c.47-.38,1.06-.24,1.45.2,2.24,3.08,4.54,6.12,6.79,9.19.43.59.51,1.34.86,1.81"/>
    <path class="cls-1" d="M193.23,500.94l-.41-49.44c10.46-.3,20.83-.35,31.32,0v49.44c-10.3.05-20.62.03-30.91,0"/>
    <path class="cls-1" d="M142.38,498.88l-.63-47.4,29.51.02v49.44c-7.33-.06-15.73.6-22.87-.53-2.08-.33-4.07-1.19-6.01-1.53"/>
    <path class="cls-1" d="M285.55,234.79c.49,16.47-.9,32.97-.41,49.44-8.25-.29-16.58,1.05-24.64-.39-.64-4.08.26-8.11.25-12.2-.02-5.98-.49-12.15-.43-18.32l25.22-18.54Z"/>
    <path class="cls-2" d="M285.15,227.79c.25,2.32.34,4.67.41,7l-25.22,18.54c0-.28,0-46.28,0-46.56,1.09.31,2.14,1.35,3.03,2.08,5.78,4.7,11.39,9.61,17.11,14.39,1.58,1.32,4.45,2.53,4.67,4.54"/>
    <path class="cls-1" d="M380.32,247.57c-3.77,2.46-26.04,23.13-28.28,23.06-1.52-.05-17.91-20.36-20.93-22.45l49.21-.61Z"/>
  </g>
  <polygon class="cls-1" points="427.1 247.15 406.96 271.06 382.76 247.15 427.1 247.15"/>
  <g>
    <path class="cls-2" d="M267.66,388.88c-1.59-2.18-2.63-4.05-4.07-6.18l4.07,6.18Z"/>
    <path class="cls-1" d="M276.61,409.48c.14,0,.27,0,.41,0l-.2.4-.2-.4Z"/>
    <path class="cls-1" d="M302.33,329.41c6.44,0,11.66,5.29,11.66,11.81s-5.22,11.81-11.66,11.81-11.66-5.28-11.66-11.81,5.22-11.81,11.66-11.81M276.58,359.45c.91.28,3.94.54,5.09.61,10.98.67,22.41-.17,33.35-.45,2.74-.07,11.57.58,13.38-.04,1.36-.46,3.33-11.29,1.55-12.99-8.78-13.54-16.07-29.79-25.12-42.95-.75-1.09-1.91-3.35-3.54-2.87-.84.25-4.86,7.75-5.64,9.15-7.08,12.53-13.61,25.4-20.75,37.9-1.53,2.82-2.03,10.48,1.68,11.63"/>
    <path class="cls-1" d="M298.24,373.49c-3.98,1.4-6.87,4.92-7.51,9.14-.65,4.22,1.05,8.45,4.42,11.01,4.86,3.69,11.72,2.88,15.61-1.84,3.89-4.73,3.44-11.71-1.03-15.89-3.1-2.89-7.51-3.82-11.49-2.42"/>
    <path class="cls-1" d="M292.95,435.98c-4.33-7.33-.85-17.09,7.97-18.16,4.48-.54,9.99,3.12,11.68,7.32,5.1,12.59-12.04,23.73-19.65,10.84M323.38,410.3c-.27,0-44.48-.9-46.37-.83l-.2.41-.2-.41c-.4.02-.85-.06-1.22,0-4.28.67-2.79,5.25-1.7,8.11,2.32,6.11,6.6,13.52,9.76,19.36,5.97,11.01,12.74,21.58,18.58,32.67l25.34-42.71c1.63-3.14,3.79-6.15,4.14-9.81.71-7.38-1.98-6.64-8.13-6.79"/>
  </g>
  <rect class="cls-1" x="207.06" y="287.94" width="17.11" height="111.76"/>
  <g>
    <path class="cls-1" d="M245.39,287.91h4.29l20.85,32.13s1.45,1.39.3,3.17c-1.14,1.79-23.86,34.65-23.86,34.65h-7.38l-.02-64.06c0-3.26,2.61-5.89,5.82-5.89"/>
    <path class="cls-1" d="M239.57,357.87h7.4l23.56,35.24s1.45,1.39.3,3.17c-1.14,1.79-23.86,34.65-23.86,34.65h-7.37l-.03-73.06Z"/>
    <path class="cls-1" d="M239.57,430.93h7.4l23.56,35.24s1.45,1.39.3,3.17c-1.14,1.79-23.25,31.6-23.25,31.6h-7.98l-.03-70.01Z"/>
    <path class="cls-1" d="M369.85,287.91h-10.11l-20.85,32.13s-1.45,1.39-.3,3.17c1.14,1.79,23.86,34.65,23.86,34.65h7.37l.03-69.96Z"/>
    <path class="cls-1" d="M369.85,357.87h-7.4l-23.56,35.24s-1.45,1.39-.3,3.17c1.14,1.79,23.86,34.65,23.86,34.65h7.37l.03-73.06Z"/>
    <path class="cls-1" d="M369.85,430.93h-7.4l-23.56,35.24s-1.45,1.39-.3,3.17c1.14,1.79,23.25,31.6,23.25,31.6h7.98l.03-70.01Z"/>
  </g>
</svg>