<?xml version="1.0" encoding="UTF-8" standalone="no"?>
<svg
   id="Capa_2"
   data-name="Capa 2"
   viewBox="0 0 600 599.99996"
   version="1.1"
   sodipodi:docname="logo-Angola-claim-grande-vertical.svg"
   width="600"
   height="600"
   inkscape:version="1.2.1 (9c6d41e, 2022-07-14)"
   xmlns:inkscape="http://www.inkscape.org/namespaces/inkscape"
   xmlns:sodipodi="http://sodipodi.sourceforge.net/DTD/sodipodi-0.dtd"
   xmlns="http://www.w3.org/2000/svg"
   xmlns:svg="http://www.w3.org/2000/svg">
  <sodipodi:namedview
     id="namedview236"
     pagecolor="#ffffff"
     bordercolor="#666666"
     borderopacity="1.0"
     inkscape:showpageshadow="2"
     inkscape:pageopacity="0.0"
     inkscape:pagecheckerboard="0"
     inkscape:deskcolor="#d1d1d1"
     showgrid="false"
     inkscape:zoom="0.51542067"
     inkscape:cx="431.68622"
     inkscape:cy="178.49498"
     inkscape:window-width="1512"
     inkscape:window-height="840"
     inkscape:window-x="0"
     inkscape:window-y="38"
     inkscape:window-maximized="1"
     inkscape:current-layer="g232" />
  <defs
     id="defs94">
    <style
       id="style92">
      .cls-1 {
        fill: #d74b29;
      }

      .cls-2 {
        fill: #e49e2f;
      }

      .cls-3 {
        fill: #446d55;
      }
    </style>
  </defs>
  <g
     id="Modo_de_aislamiento"
     data-name="Modo de aislamiento">
    <g
       id="g232">
      <g
         id="g198"
         transform="translate(-3.63696,-10)">
        <g
           id="g172"
           transform="translate(188.73025,64.025371)">
          <g
             id="g140">
            <path
               class="cls-1"
               d="m 74.22,31.26 c 0.64,0.99 1.61,2.71 2.48,3.42 0.69,0.56 1.04,0.34 1.74,0.64 1.21,0.51 2.3,2.28 2.77,3.47 0.12,0.29 0.48,0.61 0.43,1.05 0.36,16.2 -0.05,27.06 -0.05,46.12 0.19,7.2 -4.4,8.42 -8.37,8.72 -6.65,0.51 -14.39,-0.08 -21.18,-0.02 -5.43,0.04 -10.97,0.25 -16.41,0.24 -3.76,0 -7.45,-0.06 -11.15,-0.23 -1.08,-2.44 -2.09,-3.45 -2.04,-6.5 0.04,-2.87 1.43,-4.12 2.38,-6.51 1.8,-4.52 1.4,-5.65 -0.11,-10.03 0.68,0.13 0.44,-0.35 0.45,-0.79 0.38,-10.68 7.09,-21.69 17.82,-24.14 7.12,-1.63 15.89,1.08 19.77,7.6 2.91,4.89 3.34,9.97 1.13,15.28 -3.16,5.83 -10.69,8.98 -16.1,4.11 -3.19,-2.88 -3.78,-8.55 0.64,-10.31 3.31,-1.32 2.12,1.1 4.31,1.87 2.31,0.81 4.38,0.08 5.18,-2.3 1.3,-3.86 -2.38,-7.5 -5.95,-8.1 C 38.44,52.58 31.06,70.21 41.37,79.49 54.18,91.04 73.65,81.32 74.7,64.67 76.08,42.78 52.83,30.94 34.69,40.79 c -7.8,4.23 -10.55,9.3 -14.42,16.87 -0.19,0.37 -0.13,0.77 -0.74,0.73 -1.97,-4.94 -3.93,-11.3 -6.74,-15.63 -0.13,-0.2 -0.4,-0.4 -0.61,-0.53 -1.56,-1 -3.35,-3.29 -4.45,-5.06 -0.53,-0.85 -2.37,-3.53 -1.03,-4.2 2.85,-0.19 6.16,-1.7 8.88,-1.95 1.31,-0.12 3.12,0.01 4.52,0 18.03,-0.16 36.02,0.48 54.14,0.24"
               id="path96" />
            <path
               class="cls-2"
               d="m 181.16,128.18 c 0.11,0 0.45,-0.22 0.78,-0.23 1.38,-0.03 2.77,0 4.15,0.03 0.9,2.57 1.85,5.14 2.92,7.65 1.68,3.98 3.61,7.99 5.51,11.77 2.05,4.1 4.32,8.07 6.28,12.22 0.52,0.08 1.25,0.18 1.66,-0.18 l 11.03,-19.84 11.59,20.29 4.05,-6.16 h 0.22 c 0.07,0.9 0.48,1.69 0.47,2.62 -0.03,1.75 -1.29,3.45 -1.37,5.26 -0.04,1.03 0.29,1.68 0.45,2.61 0.01,0.07 -0.01,0.16 0,0.23 l -47.5,0.46 c 0.19,-2.02 0.27,-4.02 0.24,-6.05 -0.09,-5.68 -0.39,-11.57 -0.46,-17.21 0,-0.52 0,-1.12 0,-1.7 -0.06,-3.92 0.06,-7.84 0,-11.75"
               id="path98" />
            <path
               class="cls-2"
               d="m 8.03,199.1 h 65.82 c 0,0 0.39,1.25 0.39,1.25 -0.46,3.17 0.14,6.34 -0.05,9.55 l -69.08,0.15 c 0.51,-1.97 1.11,-3.97 1.58,-5.93 0.37,-1.56 1.1,-3.56 1.35,-5.02"
               id="path100" />
            <path
               class="cls-1"
               d="m 35.5,118.14 c -1.36,-2.4 -2.1,-4.61 -3.34,-6.99 -1.18,-2.26 -2.1,-3.85 -3.19,-6.23 l 54.93,0.34 v 12.09 c 0,0 -0.35,0.4 -0.45,0.45 -15.54,0.37 -31.15,-0.08 -46.72,0.11 -0.38,0 -1,-0.15 -1.23,0.23"
               id="path102" />
            <path
               class="cls-1"
               d="m 165.4,52.92 -32.98,44.24 -0.11,-28.05 c 1.86,-0.03 6.08,0.39 7.31,-1.15 0.92,-1.16 0.52,-2.88 1.04,-3.73 0.31,-0.5 1.28,-0.67 1.79,-1.15 1.35,-1.28 1.29,-4.35 1.62,-6.11 0.1,-0.53 0.6,-0.92 0.36,-1.63 -0.12,-0.35 -0.92,-0.38 -0.82,-1.14 0.17,-1.29 2.42,-1.69 3.46,-1.72 1.43,-0.04 3.46,0.42 4.92,0.44 4.45,0.08 8.96,0.05 13.41,0"
               id="path104" />
            <path
               class="cls-1"
               d="m 45.63,128.63 -0.45,61.57 c -1.15,0 -8.22,0.15 -8.57,-0.1 -0.09,-0.07 -0.15,-0.16 -0.18,-0.27 0,-13.45 -0.1,-26.91 -0.01,-40.36 0,-0.42 -0.24,-0.72 -0.24,-0.77 -0.02,-0.39 1.04,-2.21 1.24,-2.96 1.33,-4.91 1.8,-12.08 1.23,-17.11 z"
               id="path106" />
            <path
               class="cls-2"
               d="m 124.2,69.11 c 0.01,2.85 -0.01,5.71 -0.01,8.56 0.01,7.08 -0.03,14.43 0,21.44 0.03,7.28 0.94,16.34 0.23,23.48 -0.6,6.04 -8.19,6.52 -8.78,0.68 -0.24,-2.36 0.03,-5.31 0,-7.76 -0.14,-12.15 -0.05,-24.44 0,-36.7 0.01,-3.25 -0.35,-6.45 -0.24,-9.7 2.86,0.14 5.9,-0.02 8.78,0"
               id="path108" />
            <path
               class="cls-1"
               d="m 103.26,62.27 c 0.78,1.62 1.52,3.65 3.15,4.33 0.64,0.27 1.09,0.58 1.72,0.9 -0.2,8.75 0.17,17.84 0.08,26.58 0,0.38 0.14,1.01 -0.23,1.25 -0.12,-1.12 -1.71,-1.79 -2.58,-2.51 -3.16,-2.65 -6.27,-5.37 -9.47,-7.97 -0.5,-0.4 -1.07,-0.98 -1.68,-1.15 -0.01,-7.14 0,-14.3 0,-21.44 h 9.01 z"
               id="path110" />
            <path
               class="cls-1"
               d="m 26.94,156.46 -0.34,33.75 h -8.55 c -0.19,0 -0.4,-0.55 -0.35,-0.79 0.08,-7.65 -0.16,-15.32 0.24,-22.93 1.03,-1.37 2.43,-2.46 3.47,-3.9 2.51,-3.47 1.89,-3.48 5.53,-6.14"
               id="path112" />
            <path
               class="cls-1"
               d="m 15.75,11.82 c -0.35,0.39 -0.68,1.91 -0.76,1.97 -0.08,0.06 -1.25,-0.21 -1.95,0.18 -1.69,0.95 -0.65,3.91 -0.72,5.42 -0.03,0.66 -0.41,1.43 -0.41,1.86 0,0.62 0.7,0.51 0.13,1.74 C 11.42,24.34 9.53,25.31 8.1,25.41 6.71,25.5 7.02,24.39 6.49,23.43 5.75,22.08 5.87,22.12 5.38,20.93 5.18,20.42 4.48,20.09 4.29,19.51 3.78,17.91 4.99,17.15 4.87,16.21 4.79,15.63 4.06,15.07 3.79,14.54 3.57,14.11 3.6,13.55 3.39,13.13 2.89,12.16 1.12,11.29 1.83,9.7 2.44,8.33 5.14,9.16 6.52,8.29 7.59,7.61 8.58,5.28 8.74,5.18 c 0.24,-0.14 1,-0.04 1.49,-0.2 2.05,-0.67 2.46,-1.39 3.86,-2.7 2.1,-1.96 4.41,-2.59 7.32,-2.14 2.52,0.39 1.68,2.41 2.03,4.1 0.19,0.91 1.4,1.97 1.23,2.57 -0.22,0.76 -1.72,0.52 -2.29,0.66 -1.16,0.27 -1.22,1 -1.88,1.51 -1.31,1 -3.72,1.7 -4.74,2.84"
               id="path114" />
            <path
               class="cls-1"
               d="m 196.24,106.06 c 0.41,0.85 0.49,1.9 1.05,2.68 0.37,0.52 1.14,0.76 1.53,1.21 1.42,1.7 1.3,4.24 1.71,6.14 l -11.03,-9.81 c -0.06,-0.37 0.3,-0.21 0.56,-0.23 2.05,-0.1 4.14,0.08 6.19,0"
               id="path116" />
            <path
               class="cls-2"
               d="m 215.38,252.24 c 2.03,0.56 4.36,-0.41 5.68,1.89 1.34,2.33 0.03,4.89 -1.84,6.44 -2.96,2.43 -10.71,2.82 -14.68,3.6 -3.76,0.74 -17.83,4.44 -20.5,3.75 -0.46,-0.12 -1.15,-0.83 -1.74,-0.98 -1.24,-0.32 -1.96,0.11 -3.04,0.13 -4.66,0.09 -9.31,0.16 -13.98,0.21 -0.68,0 -1.25,0.33 -2,0.23 -1.96,-0.27 -5.08,-2.72 -8.24,-3.19 -4.83,-0.72 -10.06,0.05 -14.97,-0.23 -4.28,-0.24 -8.55,-1.29 -12.84,-1.59 -3.67,-0.26 -11.33,0.42 -14.22,-1.1 -1.95,-1.03 -6.71,-6.98 -8.4,-8.94 l 1.45,-0.24 h 109.31 z"
               id="path118" />
            <path
               class="cls-1"
               d="m 204.35,240.61 c 0.69,0.78 1.73,1.56 2.48,2.39 2.82,3.11 5.63,6.23 8.55,9.24 H 106.07 c 0,0 -1.45,0.23 -1.45,0.23 -0.9,-1.04 -1.71,-2.39 -2.55,-3.34 -0.4,-0.45 -1.99,-2.11 -2.4,-2.36 0.55,-0.79 0,-5.93 0.22,-6.16 h 104.47 z"
               id="path120" />
            <path
               class="cls-1"
               d="m 1.05,219.17 h 16.21 c 0,0 0.22,27.82 0.22,27.82 -3.66,0.44 -5.13,-0.16 -8.45,-0.45 -1.7,-0.15 -7.61,0.41 -8.56,-0.45 -0.25,-0.23 -0.34,-0.46 -0.33,-0.8 0.04,-4.53 -0.01,-9.06 0,-13.58 0.02,-3.16 -0.34,-7.38 0,-10.38 0.12,-1.02 0.56,-1.35 0.9,-2.17"
               id="path122" />
            <path
               class="cls-3"
               d="m 181.16,128.18 c 0.05,3.91 -0.07,7.84 0,11.75 0,0.58 0,1.18 0,1.7 l -13.06,12.66 1.13,1.37 12.06,10.61 c -0.24,2.47 0.25,4.88 0.06,7.36 -0.24,0.82 -6.01,5.6 -7.08,6.63 -1.02,0.98 -2.06,2.3 -3.12,3.35 -0.5,0.5 -3.1,2.59 -3.03,3.04 4.2,4.43 8.95,8.27 13.38,12.46 0.06,0.93 0.25,1.97 0.32,2.87 0.02,0.31 -0.16,0.61 -0.15,0.89 0.02,0.91 0.36,1.97 0.17,2.96 -0.25,1.3 -8.14,7.59 -9.34,9.25 l -0.95,0.52 -3.43,3.89 13.5,12.56 c 0.55,0.95 -0.3,2.61 -0.01,3.78 h -8.89 c -0.07,0 -0.26,0.27 -0.45,0.03 -5.62,-5.02 -10.92,-10.42 -16.54,-15.43 -0.19,-0.17 -0.41,-0.33 -0.68,-0.33 l 17.09,-16.95 -17.32,-16.45 17.56,-16.65 -17.78,-15.39 18.01,-16.43 -10.13,-10.03 c 1.84,-0.04 3.68,0.05 5.52,0 4.43,-0.1 8.73,0.02 13.16,0"
               id="path124" />
            <path
               class="cls-2"
               d="m 45.63,128.63 c 3.37,0 6.76,0 10.13,0 v 61.69 l -10.58,-0.11 0.45,-61.57 z"
               id="path126" />
            <path
               class="cls-3"
               d="m 176.06,74.05 c 4.71,6.45 9.9,12.91 14.28,19.63 0.21,0.32 0.55,0.56 0.5,0.98 l -39.17,0.46 19.36,-27.26 c 0.26,-0.21 0.58,-0.13 0.8,0.11 1.24,1.71 2.51,3.39 3.76,5.09 0.24,0.33 0.28,0.74 0.47,1"
               id="path128" />
            <path
               class="cls-1"
               d="m 57.11,246.54 -0.23,-27.37 c 5.79,-0.17 11.53,-0.19 17.34,0 v 27.37 c -5.7,0.03 -11.41,0.02 -17.11,0"
               id="path130" />
            <path
               class="cls-1"
               d="m 28.97,245.4 -0.35,-26.24 h 16.33 v 27.38 c -4.06,-0.03 -8.71,0.33 -12.66,-0.29 -1.15,-0.18 -2.25,-0.66 -3.33,-0.85"
               id="path132" />
            <path
               class="cls-1"
               d="m 108.21,99.22 c 0.27,9.11 -0.5,18.25 -0.22,27.37 -4.57,-0.16 -9.18,0.58 -13.64,-0.21 -0.36,-2.26 0.15,-4.49 0.14,-6.75 -0.01,-3.31 -0.27,-6.73 -0.24,-10.14 l 13.96,-10.26 z"
               id="path134" />
            <path
               class="cls-2"
               d="m 107.99,95.34 c 0.14,1.28 0.19,2.58 0.23,3.88 l -13.96,10.26 c 0,-0.15 0,-25.62 0,-25.77 0.61,0.17 1.18,0.74 1.68,1.15 3.2,2.6 6.31,5.32 9.47,7.97 0.87,0.73 2.46,1.4 2.58,2.51"
               id="path136" />
            <path
               class="cls-1"
               d="m 160.67,106.29 c -2.09,1.36 -14.41,12.8 -15.65,12.77 -0.84,-0.03 -9.92,-11.27 -11.59,-12.43 z"
               id="path138" />
          </g>
          <polygon
             class="cls-1"
             points="175.42,119.29 162.02,106.06 186.56,106.06 "
             id="polygon142" />
          <g
             id="g154">
            <path
               class="cls-2"
               d="m 98.31,184.51 c -0.88,-1.21 -1.45,-2.24 -2.25,-3.42 z"
               id="path144" />
            <path
               class="cls-1"
               d="m 103.26,195.91 c 0.08,0 0.15,0 0.23,0 l -0.11,0.22 -0.11,-0.22 z"
               id="path146" />
            <path
               class="cls-1"
               d="m 117.5,151.59 c 3.56,0 6.45,2.93 6.45,6.53 0,3.6 -2.89,6.53 -6.45,6.53 -3.56,0 -6.45,-2.93 -6.45,-6.53 0,-3.6 2.89,-6.53 6.45,-6.53 m -14.25,16.62 c 0.5,0.16 2.18,0.3 2.82,0.34 6.08,0.37 12.41,-0.09 18.46,-0.25 1.52,-0.04 6.4,0.32 7.41,-0.02 0.75,-0.26 1.84,-6.25 0.86,-7.19 -4.86,-7.49 -8.9,-16.49 -13.9,-23.77 -0.41,-0.6 -1.06,-1.85 -1.96,-1.59 -0.46,0.14 -2.69,4.29 -3.12,5.06 -3.92,6.93 -7.54,14.06 -11.48,20.98 -0.85,1.56 -1.12,5.8 0.93,6.44"
               id="path148" />
            <path
               class="cls-1"
               d="m 115.24,175.99 c -2.2,0.78 -3.8,2.72 -4.16,5.06 -0.36,2.33 0.58,4.68 2.45,6.1 2.69,2.04 6.49,1.6 8.64,-1.02 2.15,-2.62 1.9,-6.48 -0.57,-8.79 -1.71,-1.6 -4.16,-2.12 -6.36,-1.34"
               id="path150" />
            <path
               class="cls-1"
               d="m 112.31,210.58 c -2.4,-4.06 -0.47,-9.46 4.41,-10.05 2.48,-0.3 5.53,1.73 6.47,4.05 2.82,6.97 -6.67,13.14 -10.88,6 m 16.84,-14.21 c -0.15,0 -24.62,-0.5 -25.66,-0.46 l -0.11,0.22 -0.11,-0.22 c -0.22,0.01 -0.47,-0.03 -0.67,0 -2.37,0.37 -1.54,2.91 -0.94,4.49 1.29,3.38 3.65,7.48 5.4,10.72 3.3,6.09 7.05,11.95 10.28,18.09 l 14.03,-23.64 c 0.9,-1.74 2.1,-3.4 2.29,-5.43 0.39,-4.09 -1.1,-3.67 -4.5,-3.76"
               id="path152" />
          </g>
          <rect
             class="cls-1"
             x="64.760002"
             y="128.63"
             width="9.4700003"
             height="61.860001"
             id="rect156" />
          <g
             id="g170">
            <path
               class="cls-1"
               d="m 85.98,128.62 h 2.38 l 11.54,17.79 c 0,0 0.8,0.77 0.17,1.76 -0.63,0.99 -13.21,19.18 -13.21,19.18 h -4.08 v -35.46 c -0.01,-1.8 1.43,-3.26 3.21,-3.26"
               id="path158" />
            <path
               class="cls-1"
               d="m 82.76,167.34 h 4.1 l 13.04,19.5 c 0,0 0.8,0.77 0.17,1.76 -0.63,0.99 -13.21,19.18 -13.21,19.18 h -4.08 v -40.44 z"
               id="path160" />
            <path
               class="cls-1"
               d="m 82.76,207.78 h 4.1 l 13.04,19.5 c 0,0 0.8,0.77 0.17,1.76 -0.63,0.99 -12.87,17.49 -12.87,17.49 h -4.42 v -38.75 z"
               id="path162" />
            <path
               class="cls-1"
               d="m 154.87,128.62 h -5.6 l -11.54,17.79 c 0,0 -0.8,0.77 -0.17,1.76 0.63,0.99 13.21,19.18 13.21,19.18 h 4.08 v -38.72 z"
               id="path164" />
            <path
               class="cls-1"
               d="m 154.87,167.34 h -4.1 l -13.04,19.5 c 0,0 -0.8,0.77 -0.17,1.76 0.63,0.99 13.21,19.18 13.21,19.18 h 4.08 v -40.44 z"
               id="path166" />
            <path
               class="cls-1"
               d="m 154.87,207.78 h -4.1 l -13.04,19.5 c 0,0 -0.8,0.77 -0.17,1.76 0.63,0.99 12.87,17.49 12.87,17.49 h 4.42 v -38.75 z"
               id="path168" />
          </g>
        </g>
        <g
           id="g196"
           transform="translate(-214.09809,64.025371)">
          <path
             d="m 354.63505,369.64791 h 18.49 l -9.25,-34.43 z m 49.15,34.5 c 0.41,1.19 1.45,1.79 3.13,1.79 h 1.83 v 3.37 h -30.52 v -3.37 h 1.29 c 0.77,0 1.39,-0.28 1.87,-0.83 0.48,-0.55 0.67,-1.42 0.58,-2.62 l -7.27,-26.99 h -21.62 l -7.68,28.5 c -0.18,0.64 -0.02,1.13 0.48,1.45 0.5,0.32 1.22,0.48 2.18,0.48 h 2.25 v 3.37 h -17.2 v -3.37 c 1.72,0 3.03,-0.31 3.91,-0.93 0.88,-0.62 1.55,-1.59 2.01,-2.93 l 20.26,-75.26 c -0.82,-0.69 -1.84,-1.03 -3.06,-1.03 v -3.38 c 1.22,0 3.18,-0.03 5.88,-0.1 2.69,-0.07 6,-0.24 9.92,-0.52 3.92,-0.28 6.36,-0.64 7.31,-1.1 1.45,1.1 2.27,1.67 2.45,1.72 l 22.02,81.73 z"
             id="path174" />
          <path
             d="m 449.35505,405.93791 c 1.72,0 2.98,-0.63 3.77,-1.89 0.79,-1.26 1.19,-2.65 1.19,-4.17 0,-15.42 -0.05,-27.59 -0.13,-36.49 -0.05,-2.34 -0.17,-4.22 -0.38,-5.65 -0.2,-1.42 -0.78,-2.71 -1.73,-3.85 -0.95,-1.15 -2.31,-1.72 -4.08,-1.72 -0.54,0 -1.13,0.1 -1.77,0.31 -0.64,0.21 -1.44,0.76 -2.41,1.65 -0.97,0.89 -1.83,2.09 -2.55,3.58 -0.73,1.49 -1.36,3.72 -1.9,6.68 -0.55,2.96 -0.82,6.39 -0.82,10.29 v 25.2 c 0,1.52 0.4,2.9 1.19,4.17 0.79,1.26 2.05,1.89 3.77,1.89 v 3.37 h -30.52 v -3.37 c 1.63,0 2.84,-0.56 3.64,-1.69 0.79,-1.12 1.23,-2.42 1.33,-3.89 v -38.15 c -0.09,-1.47 -0.53,-2.77 -1.33,-3.89 -0.8,-1.12 -2.01,-1.69 -3.64,-1.69 v -3.38 h 4.96 c 3.22,0 6.53,-0.43 9.92,-1.31 3.4,-0.87 6.12,-2.25 8.16,-4.13 1.4,1.01 2.24,1.56 2.51,1.65 v 5.3 c 1,-1.28 2.15,-2.33 3.47,-3.13 1.31,-0.8 2.79,-1.34 4.42,-1.62 1.63,-0.28 2.79,-0.44 3.47,-0.48 0.68,-0.05 1.7,-0.07 3.06,-0.07 4.21,0 7.82,0.55 10.81,1.65 2.99,1.1 5.24,2.6 6.76,4.51 1.52,1.91 2.6,3.88 3.26,5.92 0.66,2.04 0.98,4.28 0.98,6.72 0.09,8.08 0.14,18.7 0.14,31.88 0.04,1.52 0.46,2.86 1.26,4.03 0.79,1.17 2.03,1.76 3.71,1.76 v 3.37 h -30.52 v -3.37 z"
             id="path176" />
          <path
             d="m 516.07505,385.34791 c 1.5,0 2.64,-1.25 3.43,-3.75 0.79,-2.5 0.85,-5.43 0.17,-8.78 -0.59,-2.98 -1.45,-5.94 -2.58,-8.88 -1.13,-2.94 -2.64,-5.59 -4.52,-7.95 -1.88,-2.36 -3.84,-3.55 -5.88,-3.55 -1.54,0 -2.83,1.18 -3.87,3.55 -1.04,2.36 -1.29,4.97 -0.75,7.81 1.13,5.97 2.97,11.05 5.5,15.25 2.54,4.2 5.37,6.3 8.5,6.3 m 25.76,-47.1 c 1.86,0 3.46,0.68 4.79,2.03 1.33,1.35 2.01,2.97 2.01,4.85 0,1.88 -0.67,3.5 -2.01,4.86 -1.34,1.36 -2.93,2.03 -4.79,2.03 -2,0 -3.63,-0.69 -4.89,-2.07 -4.53,-0.05 -8.54,1.05 -12.03,3.3 4.08,1.52 7.54,4.12 10.4,7.82 2.85,3.7 4.28,7.08 4.28,10.16 0,3.72 -1.03,6.92 -3.09,9.6 -2.06,2.69 -4.6,4.61 -7.61,5.78 -3.01,1.17 -6.31,1.76 -9.89,1.76 -9.88,0 -18.15,-2.2 -24.81,-6.61 -1.27,1.1 -1.79,2.32 -1.56,3.65 0.23,1.19 1.09,2.29 2.58,3.3 1.5,1.01 3.37,1.86 5.61,2.55 2.24,0.69 4.77,1.43 7.58,2.24 2.81,0.8 5.64,1.6 8.5,2.38 2.85,0.78 5.65,1.8 8.39,3.06 2.74,1.26 5.18,2.66 7.31,4.2 2.13,1.54 3.84,3.48 5.13,5.82 1.29,2.34 1.94,4.96 1.94,7.85 0,3.95 -1.5,7.51 -4.49,10.67 -2.99,3.17 -6.57,5.54 -10.74,7.13 -4.17,1.58 -8.34,2.37 -12.51,2.37 -9.34,0 -16.29,-1.41 -20.87,-4.23 -4.58,-2.82 -6.86,-6.51 -6.86,-11.05 0,-2.66 0.93,-4.95 2.79,-6.85 1.86,-1.9 4.12,-2.86 6.8,-2.86 2.68,0 4.87,0.94 6.73,2.82 1.86,1.88 2.79,4.18 2.79,6.89 0,2.38 -0.76,4.49 -2.28,6.3 -1.52,1.81 -3.41,2.9 -5.68,3.27 2.49,1.15 5.66,1.72 9.52,1.72 3.35,0 6.56,-1.02 9.62,-3.06 3.06,-2.04 4.59,-4.46 4.59,-7.26 0,-2.43 -0.58,-4.58 -1.73,-6.44 -1.16,-1.86 -2.69,-3.37 -4.59,-4.54 -1.9,-1.17 -4.01,-2.24 -6.32,-3.2 -2.31,-0.96 -4.67,-1.92 -7.07,-2.86 -2.4,-0.94 -4.65,-1.96 -6.73,-3.06 -2.09,-1.1 -3.88,-2.51 -5.4,-4.24 -1.52,-1.72 -2.48,-3.68 -2.89,-5.89 -0.95,-5.05 1.52,-9.18 7.41,-12.39 -4.94,-3.99 -7.41,-8.58 -7.41,-13.77 0,-5.19 1.93,-9.34 5.78,-12.33 3.85,-2.98 8.95,-4.48 15.29,-4.48 5.75,0 10.94,0.76 15.57,2.27 0.91,-1.47 1.97,-2.9 3.2,-4.3 1.22,-1.4 2.71,-2.83 4.45,-4.3 1.74,-1.47 3.77,-2.65 6.08,-3.55 2.31,-0.89 4.69,-1.34 7.14,-1.34"
             id="path178" />
          <path
             d="m 567.49505,397.73791 c 1.54,5.19 3.4,7.78 5.57,7.78 2.17,0 4.03,-2.59 5.57,-7.78 1.54,-5.19 2.31,-11.43 2.31,-18.73 0,-7.3 -0.77,-13.53 -2.31,-18.69 -1.54,-5.17 -3.4,-7.75 -5.57,-7.75 -2.17,0 -4.03,2.58 -5.57,7.75 -1.54,5.16 -2.31,11.39 -2.31,18.69 0,7.3 0.77,13.54 2.31,18.73 m 3.27,-48.26 c 5.21,0 10.18,1.32 14.92,3.96 4.73,2.64 8.57,6.29 11.52,10.95 2.95,4.66 4.42,9.68 4.42,15.05 0,8.44 -2.44,15.54 -7.31,21.28 -4.87,5.74 -11.18,8.61 -18.93,8.61 -5.21,0 -10.18,-1.31 -14.92,-3.92 -4.74,-2.62 -8.58,-6.24 -11.52,-10.88 -2.95,-4.64 -4.42,-9.66 -4.42,-15.08 0,-8.45 2.43,-15.55 7.31,-21.31 4.87,-5.76 11.18,-8.64 18.93,-8.64"
             id="path180" />
          <path
             d="m 636.25505,405.93791 v 3.37 h -30.52 v -3.37 c 1.63,0 2.84,-0.56 3.64,-1.69 0.79,-1.12 1.23,-2.42 1.32,-3.89 v -65.27 c -0.09,-1.47 -0.53,-2.75 -1.32,-3.86 -0.79,-1.1 -2.01,-1.65 -3.64,-1.65 v -3.37 c 11.51,0 19.19,-1.81 23.04,-5.44 1.4,1.01 2.24,1.56 2.51,1.65 v 77.46 c 0,1.52 0.4,2.9 1.19,4.17 0.79,1.26 2.05,1.89 3.77,1.89"
             id="path182" />
          <path
             d="m 665.58505,402.07791 c 3.44,0 7.18,-3.03 11.22,-9.09 0,-2.61 -0.01,-6.52 -0.03,-11.7 -0.02,-5.19 -0.03,-8.79 -0.03,-10.81 -1,1.33 -2.54,2.88 -4.62,4.65 -2.09,1.77 -3.92,3.33 -5.5,4.68 -1.59,1.35 -3.03,3.32 -4.32,5.89 -1.29,2.57 -1.94,5.49 -1.94,8.74 0,2.75 0.57,4.72 1.7,5.89 1.13,1.17 2.31,1.76 3.54,1.76 m 31.79,-2 c 0.04,1.51 0.46,2.87 1.26,4.06 0.79,1.19 2.03,1.79 3.71,1.79 v 3.37 h -25.56 v -11.57 c -5.66,7.71 -11.99,11.57 -18.96,11.57 -5.57,0 -9.85,-1.35 -12.85,-4.06 -2.99,-2.71 -4.49,-6.7 -4.49,-11.98 0,-2.89 0.67,-5.41 2.01,-7.57 1.34,-2.16 3.07,-3.86 5.2,-5.13 2.13,-1.26 4.47,-2.36 7.03,-3.31 2.56,-0.94 5.12,-1.8 7.68,-2.58 2.56,-0.78 4.9,-1.62 7.03,-2.51 2.13,-0.89 3.86,-2.08 5.2,-3.55 1.34,-1.47 2.01,-3.21 2.01,-5.23 0,-1.74 -0.07,-3.17 -0.2,-4.27 -0.14,-1.1 -0.44,-2.24 -0.92,-3.41 -0.48,-1.17 -1.25,-2.04 -2.31,-2.62 -1.06,-0.57 -2.43,-0.86 -4.11,-0.86 -0.59,0 -1.29,0.15 -2.11,0.45 -0.82,0.3 -1.7,0.78 -2.65,1.45 -0.95,0.67 -1.75,1.65 -2.38,2.96 -0.64,1.31 -0.95,2.81 -0.95,4.51 0,1.33 0.17,2.4 0.51,3.2 0.34,0.8 0.68,1.35 1.02,1.65 0.34,0.3 0.51,0.5 0.51,0.59 0,0.87 -0.75,1.92 -2.24,3.13 -1.5,1.22 -3.42,1.82 -5.78,1.82 -2.85,0 -5.36,-0.84 -7.51,-2.51 -2.15,-1.68 -3.23,-3.82 -3.23,-6.44 0,-4.13 2.31,-7.42 6.93,-9.88 4.62,-2.45 10.51,-3.68 17.67,-3.68 3.72,0 7.07,0.25 10.06,0.76 2.99,0.51 5.49,1.23 7.51,2.17 2.02,0.94 3.74,2 5.17,3.17 1.43,1.17 2.54,2.49 3.33,3.96 0.79,1.47 1.37,2.91 1.73,4.34 0.36,1.42 0.54,2.92 0.54,4.48 0.09,8.08 0.14,18.66 0.14,31.74"
             id="path184" />
          <path
             d="m 438.67505,295.85791 c -1.75,3.67 -19.91,36.84 -21.95,40.11 h -6.73 c -0.96,-5.39 -8.32,-40.05 -8.32,-40.11 h 7.86 c 1.13,6.36 3.68,20.11 5.77,30.25 5.04,-9.85 13.07,-25.1 15.61,-30.25 h 7.75 z"
             id="path186" />
          <path
             d="m 442.35505,297.11791 c 0,-2.92 2.04,-4.81 4.98,-4.81 2.6,0 4.24,1.55 4.24,3.95 0,2.92 -2.04,4.87 -4.92,4.87 -2.66,0 -4.3,-1.6 -4.3,-4.01 m -6.17,38.85 c 1.02,-4.87 1.98,-10.03 2.88,-15.19 0.96,-5.5 1.81,-10.89 2.32,-14.9 h 7.92 c -0.85,4.81 -2.04,10.72 -3.17,17.19 -0.74,4.24 -1.47,8.94 -2.15,12.89 h -7.81 z"
             id="path188" />
          <path
             d="m 450.10505,334.18791 1.75,-5.79 c 2.32,2.06 6.17,2.46 8.48,2.46 3.79,0 7.07,-1.49 7.07,-4.3 0,-1.95 -2.26,-2.63 -5.83,-3.67 -4.24,-1.26 -8.15,-2.69 -8.15,-7.05 0,-6.65 6.45,-10.89 14.03,-10.89 3.84,0 7.13,1.09 9.11,2.75 l -1.64,5.56 c -1.75,-1.43 -4.98,-2.35 -7.98,-2.35 -3.23,0 -5.94,1.43 -5.94,3.72 0,1.55 1.98,2.12 5.04,3.04 6.68,2.01 8.94,4.3 8.94,7.85 0,7.33 -6.68,11.35 -14.54,11.35 -3.96,0 -8.03,-0.97 -10.35,-2.69"
             id="path190" />
          <path
             d="m 484.71505,297.11791 c 0,-2.92 2.04,-4.81 4.98,-4.81 2.6,0 4.24,1.55 4.24,3.95 0,2.92 -2.04,4.87 -4.92,4.87 -2.66,0 -4.3,-1.6 -4.3,-4.01 m -6.16,38.85 c 1.02,-4.87 1.98,-10.03 2.88,-15.19 0.96,-5.5 1.81,-10.89 2.32,-14.9 h 7.92 c -0.85,4.81 -2.04,10.72 -3.17,17.19 -0.74,4.24 -1.47,8.94 -2.15,12.89 h -7.81 z"
             id="path192" />
          <path
             d="m 506.71505,312.18791 -2.26,13.06 c -0.17,0.8 -0.28,1.6 -0.28,2.35 0,1.55 0.68,2.81 3.73,2.81 2.37,0 4.64,-0.75 6.17,-1.6 l -0.11,5.96 c -2.43,1.55 -5.54,2.12 -8.6,2.12 -7.24,0 -8.83,-3.44 -8.83,-7.33 0,-1.55 0.28,-3.27 0.51,-4.81 l 2.21,-12.55 h -4.35 l 1.02,-5.84 h 4.69 c 0.74,-2.52 1.76,-5.79 2.77,-9.34 h 6.11 c -0.51,2.63 -1.19,6.19 -1.75,9.34 h 10.58 l -1.41,5.84 h -10.18 z"
             id="path194" />
        </g>
      </g>
      <g
         id="g230"
         transform="translate(-594.37,366.69076)">
        <path
           d="m 725.98,153.98 -0.76,4.24 h -10.54 c -0.94,5.23 -1.7,9.16 -2.37,13.18 -0.76,4.07 -1.43,8.35 -2.41,13.85 h -5.14 c 0.54,-2.32 1.56,-7.64 2.55,-13.22 0.85,-4.91 1.74,-10.18 2.28,-13.8 H 699 l 0.76,-4.24 h 26.22 z"
           id="path200" />
        <path
           d="m 748.08,167.06 c 0,1.03 -0.09,1.92 -0.22,2.59 l -1.34,7.64 c -0.85,5 -1.03,6.48 -1.25,7.95 h -5.05 c 0.36,-1.47 0.63,-3.39 1.47,-8.08 l 1.21,-6.61 c 0.09,-0.63 0.22,-1.38 0.22,-2.19 0,-1.52 -0.54,-3.08 -3.22,-3.08 -2.68,0 -5.41,1.43 -7.5,3.75 l -1.47,8.22 c -0.89,5 -1.25,7.1 -1.43,8 h -4.87 c 0.27,-0.76 0.94,-4.78 1.7,-9.25 1.52,-8.49 3.53,-20.32 4.25,-24.25 h 4.91 l -2.41,13.49 c 2.72,-2.59 5.9,-4.16 9.25,-4.16 4.82,0 5.76,3.26 5.76,5.99 z"
           id="path202" />
        <path
           d="m 763.39,175.77 -6.57,0.89 c 0.31,3.22 2.41,5 6.48,5 3.26,0 5.85,-1.12 7.15,-2.19 l 0.04,3.84 c -2.14,1.88 -5.36,2.63 -8.26,2.63 -6.52,0 -10.36,-3.8 -10.36,-9.74 0,-8 5.72,-15.14 13.58,-15.14 4.74,0 7.73,2.55 7.73,6.39 0,5.09 -4.15,7.59 -9.78,8.31 z m -0.31,-3.12 c 3.35,-0.36 5.58,-1.79 5.58,-4.51 0,-1.83 -1.43,-2.95 -3.8,-2.95 -4.38,0 -7.15,3.8 -7.86,8.17 l 6.08,-0.72 z"
           id="path204" />
        <path
           d="m 803.31,173.14 c 2.5,4.16 4.96,8.17 7.37,12.1 h -5.99 c -1.96,-3.84 -4.73,-8.71 -6.48,-11.66 h -4.87 l -2.01,11.66 h -4.96 c 0.67,-2.77 1.88,-9.38 3.08,-16.17 1.03,-5.9 2.06,-11.92 2.55,-15.1 h 9.78 c 6.3,0 9.69,3.22 9.69,8.17 0,5.45 -3.21,9.78 -8.17,10.99 z m -7.15,-14.97 c -0.58,2.99 -1.3,6.92 -2.1,11.21 h 5.67 c 3.93,0 6.66,-2.99 6.66,-6.97 0,-2.54 -1.56,-4.24 -5.58,-4.24 z"
           id="path206" />
        <path
           d="m 838.09,167.06 c 0,1.03 -0.09,1.92 -0.22,2.59 l -1.34,7.64 c -0.85,5 -1.03,6.48 -1.25,7.95 h -5.05 c 0.36,-1.47 0.63,-3.39 1.47,-8.08 l 1.21,-6.61 c 0.09,-0.63 0.22,-1.38 0.22,-2.19 0,-1.52 -0.54,-3.08 -3.22,-3.08 -2.68,0 -5.41,1.43 -7.5,3.75 l -1.47,8.22 c -0.89,5 -1.25,7.1 -1.43,8 h -4.87 c 0.27,-0.76 0.94,-4.78 1.7,-9.25 1.52,-8.49 3.53,-20.32 4.25,-24.25 h 4.91 l -2.41,13.49 c 2.72,-2.59 5.9,-4.16 9.25,-4.16 4.82,0 5.76,3.26 5.76,5.99 z"
           id="path208" />
        <path
           d="m 865.06,161.79 c -1.65,3.3 -9.78,18.04 -14.96,27.56 -2.46,4.38 -4.65,5.54 -7.95,5.54 -1.74,0 -3.13,-0.31 -4.11,-0.71 l 0.67,-3.8 c 0.22,0.09 1.83,0.27 2.77,0.27 1.83,0 3.08,-0.8 4.6,-3.44 l 1.29,-2.23 c -0.94,-4.6 -4.24,-18.58 -5.13,-23.18 h 5.09 c 0.67,5.13 2.1,11.48 3.35,17.87 3.3,-6.16 6.61,-12.55 9.33,-17.87 h 5.05 z"
           id="path210" />
        <path
           d="m 875.95,165.81 -2.05,11.66 c -0.13,0.67 -0.22,1.34 -0.22,1.92 0,1.3 0.58,2.28 3.08,2.28 1.96,0 3.8,-0.58 5.09,-1.3 l -0.04,3.89 c -1.83,1.25 -4.2,1.7 -6.52,1.7 -5.36,0 -6.52,-2.5 -6.52,-5.32 0,-1.12 0.22,-2.37 0.4,-3.48 l 2.01,-11.35 h -3.62 l 0.72,-3.88 h 3.75 l 2.05,-7.06 h 3.89 c -0.4,2.05 -0.89,4.65 -1.3,7.06 h 8.76 l -1.03,3.88 h -8.44 z"
           id="path212" />
        <path
           d="m 909.17,167.06 c 0,1.03 -0.09,1.92 -0.22,2.59 l -1.34,7.64 c -0.85,5 -1.03,6.48 -1.25,7.95 h -5.05 c 0.36,-1.47 0.63,-3.39 1.47,-8.08 l 1.21,-6.61 c 0.09,-0.63 0.22,-1.38 0.22,-2.19 0,-1.52 -0.54,-3.08 -3.22,-3.08 -2.68,0 -5.41,1.43 -7.5,3.75 l -1.47,8.22 c -0.89,5 -1.25,7.1 -1.43,8 h -4.87 c 0.27,-0.76 0.94,-4.78 1.7,-9.25 1.52,-8.49 3.53,-20.32 4.25,-24.25 h 4.91 l -2.41,13.49 c 2.72,-2.59 5.9,-4.16 9.25,-4.16 4.82,0 5.76,3.26 5.76,5.99 z"
           id="path214" />
        <path
           d="m 949.67,166.93 c 0,1.12 -0.18,2.1 -0.27,2.72 l -1.52,8.67 c -0.54,3.04 -0.76,4.29 -1.07,6.92 h -5 c 0.54,-2.59 0.8,-4.2 1.34,-7.19 l 1.34,-7.64 c 0.09,-0.54 0.27,-1.34 0.27,-2.14 0,-1.52 -0.54,-2.99 -2.95,-2.99 -2.41,0 -5,1.43 -6.97,3.75 -0.04,0.22 -0.04,0.45 -0.09,0.62 l -1.52,8.67 c -0.54,3.04 -0.76,4.29 -1.07,6.92 h -5.05 c 0.54,-2.59 0.8,-4.2 1.34,-7.19 l 1.38,-7.64 c 0.09,-0.54 0.22,-1.34 0.22,-2.14 0,-1.52 -0.54,-2.99 -2.91,-2.99 -2.54,0 -5.13,1.52 -7.19,3.93 -0.27,2.81 -0.8,5.9 -1.61,10.72 -0.31,1.52 -0.58,3.39 -0.98,5.32 h -4.91 c 0.58,-2.81 1.16,-5.76 1.7,-8.84 0.94,-5.41 1.74,-10.76 2.1,-14.61 h 4.16 c 0,1.47 -0.04,2.77 -0.13,3.97 2.68,-2.86 5.81,-4.69 9.25,-4.69 3.93,0 5.14,2.37 5.45,4.69 2.68,-2.86 5.81,-4.69 9.25,-4.69 4.55,0 5.45,3.22 5.45,5.85 z"
           id="path216" />
        <path
           d="m 963.63,176.4 c 0,-8.22 6.12,-15.32 14.29,-15.32 6.07,0 9.78,3.62 9.78,9.51 0,8.22 -5.99,15.37 -14.16,15.37 -6.12,0 -9.92,-3.66 -9.92,-9.56 z m 19.03,-5.23 c 0,-3.62 -2.05,-5.85 -5.5,-5.85 -5.23,0 -8.53,5.36 -8.53,10.58 0,3.58 1.96,5.81 5.27,5.81 5.27,0 8.76,-5.27 8.76,-10.54 z"
           id="path218" />
        <path
           d="m 1000.38,159.78 -0.36,2.14 h 6.75 l -1.03,3.88 h -6.43 l -2.23,12.68 c -0.45,2.59 -0.94,5.54 -1.16,6.75 h -4.96 c 0.36,-1.79 0.98,-4.78 1.43,-7.33 l 2.14,-12.1 h -3.57 l 0.71,-3.88 h 3.53 l 0.4,-2.28 c 0.94,-5.36 4.65,-8.62 9.96,-8.62 2.19,0 4.38,0.58 5.23,1.25 l -0.89,3.75 c -0.71,-0.45 -2.19,-0.67 -3.62,-0.67 -3.57,0 -5.45,1.83 -5.9,4.42 z"
           id="path220" />
        <path
           d="m 1037.4,181.18 -0.76,4.07 h -19.12 c 0.36,-1.43 1.52,-8 2.72,-15.01 1.21,-6.66 2.46,-13.76 2.81,-16.26 h 4.96 c -0.67,3.66 -1.83,10.14 -2.91,16.21 -0.71,3.98 -1.38,7.95 -1.88,10.99 h 14.16 z"
           id="path222" />
        <path
           d="m 1040.83,185.24 c 0.8,-3.8 1.56,-7.82 2.28,-11.79 0.76,-4.33 1.43,-8.53 1.83,-11.66 h 5.13 c -0.67,3.66 -1.61,8.26 -2.46,13.26 -0.62,3.35 -1.2,7.01 -1.74,10.18 h -5.05 z m 4.83,-30.41 c 0,-1.97 1.38,-3.26 3.44,-3.26 1.79,0 2.91,1.03 2.91,2.63 0,1.96 -1.43,3.3 -3.39,3.3 -1.83,0 -2.95,-1.07 -2.95,-2.68 z"
           id="path224" />
        <path
           d="m 1062.53,159.78 -0.36,2.14 h 6.75 l -1.03,3.88 h -6.43 l -2.23,12.68 c -0.45,2.59 -0.94,5.54 -1.16,6.75 h -4.96 c 0.36,-1.79 0.98,-4.78 1.43,-7.33 l 2.14,-12.1 h -3.57 l 0.71,-3.88 h 3.53 l 0.4,-2.28 c 0.94,-5.36 4.65,-8.62 9.96,-8.62 2.19,0 4.38,0.58 5.23,1.25 l -0.89,3.75 c -0.71,-0.45 -2.19,-0.67 -3.62,-0.67 -3.57,0 -5.45,1.83 -5.9,4.42 z"
           id="path226" />
        <path
           d="m 1079.95,175.77 -6.57,0.89 c 0.31,3.22 2.41,5 6.48,5 3.26,0 5.85,-1.12 7.15,-2.19 l 0.04,3.84 c -2.14,1.88 -5.36,2.63 -8.26,2.63 -6.52,0 -10.36,-3.8 -10.36,-9.74 0,-8 5.72,-15.14 13.58,-15.14 4.74,0 7.73,2.55 7.73,6.39 0,5.09 -4.15,7.59 -9.78,8.31 z m -0.31,-3.12 c 3.35,-0.36 5.58,-1.79 5.58,-4.51 0,-1.83 -1.43,-2.95 -3.8,-2.95 -4.38,0 -7.15,3.8 -7.86,8.17 l 6.08,-0.72 z"
           id="path228" />
      </g>
    </g>
  </g>
</svg>
