<?xml version="1.0" encoding="UTF-8"?>
<svg id="Capa_2" data-name="Capa 2" xmlns="http://www.w3.org/2000/svg" viewBox="0 0 1089.73 268.01">
  <defs>
    <style>
      .cls-1 {
        fill: #d74b29;
      }

      .cls-2 {
        fill: #e49e2f;
      }

      .cls-3 {
        fill: #446d55;
      }
    </style>
  </defs>
  <g id="Modo_de_aislamiento" data-name="Modo de aislamiento">
    <g>
      <g>
        <g>
          <g>
            <path class="cls-1" d="M74.22,31.26c.64.99,1.61,2.71,2.48,3.42.69.56,1.04.34,1.74.64,1.21.51,2.3,2.28,2.77,3.47.12.29.48.61.43,1.05.36,16.2-.05,27.06-.05,46.12.19,7.2-4.4,8.42-8.37,8.72-6.65.51-14.39-.08-21.18-.02-5.43.04-10.97.25-16.41.24-3.76,0-7.45-.06-11.15-.23-1.08-2.44-2.09-3.45-2.04-6.5.04-2.87,1.43-4.12,2.38-6.51,1.8-4.52,1.4-5.65-.11-10.03.68.13.44-.35.45-.79.38-10.68,7.09-21.69,17.82-24.14,7.12-1.63,15.89,1.08,19.77,7.6,2.91,4.89,3.34,9.97,1.13,15.28-3.16,5.83-10.69,8.98-16.1,4.11-3.19-2.88-3.78-8.55.64-10.31,3.31-1.32,2.12,1.1,4.31,1.87,2.31.81,4.38.08,5.18-2.3,1.3-3.86-2.38-7.5-5.95-8.1-13.52-2.27-20.9,15.36-10.59,24.64,12.81,11.55,32.28,1.83,33.33-14.82,1.38-21.89-21.87-33.73-40.01-23.88-7.8,4.23-10.55,9.3-14.42,16.87-.19.37-.13.77-.74.73-1.97-4.94-3.93-11.3-6.74-15.63-.13-.2-.4-.4-.61-.53-1.56-1-3.35-3.29-4.45-5.06-.53-.85-2.37-3.53-1.03-4.2,2.85-.19,6.16-1.7,8.88-1.95,1.31-.12,3.12.01,4.52,0,18.03-.16,36.02.48,54.14.24"/>
            <path class="cls-2" d="M181.16,128.18c.11,0,.45-.22.78-.23,1.38-.03,2.77,0,4.15.03.9,2.57,1.85,5.14,2.92,7.65,1.68,3.98,3.61,7.99,5.51,11.77,2.05,4.1,4.32,8.07,6.28,12.22.52.08,1.25.18,1.66-.18l11.03-19.84,11.59,20.29,4.05-6.16h.22c.07.9.48,1.69.47,2.62-.03,1.75-1.29,3.45-1.37,5.26-.04,1.03.29,1.68.45,2.61.01.07-.01.16,0,.23l-47.5.46c.19-2.02.27-4.02.24-6.05-.09-5.68-.39-11.57-.46-17.21,0-.52,0-1.12,0-1.7-.06-3.92.06-7.84,0-11.75"/>
            <path class="cls-2" d="M8.03,199.1h65.82s.39,1.25.39,1.25c-.46,3.17.14,6.34-.05,9.55l-69.08.15c.51-1.97,1.11-3.97,1.58-5.93.37-1.56,1.1-3.56,1.35-5.02"/>
            <path class="cls-1" d="M35.5,118.14c-1.36-2.4-2.1-4.61-3.34-6.99-1.18-2.26-2.1-3.85-3.19-6.23l54.93.34v12.09s-.35.4-.45.45c-15.54.37-31.15-.08-46.72.11-.38,0-1-.15-1.23.23"/>
            <path class="cls-1" d="M165.4,52.92l-32.98,44.24-.11-28.05c1.86-.03,6.08.39,7.31-1.15.92-1.16.52-2.88,1.04-3.73.31-.5,1.28-.67,1.79-1.15,1.35-1.28,1.29-4.35,1.62-6.11.1-.53.6-.92.36-1.63-.12-.35-.92-.38-.82-1.14.17-1.29,2.42-1.69,3.46-1.72,1.43-.04,3.46.42,4.92.44,4.45.08,8.96.05,13.41,0"/>
            <path class="cls-1" d="M45.63,128.63l-.45,61.57c-1.15,0-8.22.15-8.57-.1-.09-.07-.15-.16-.18-.27,0-13.45-.1-26.91-.01-40.36,0-.42-.24-.72-.24-.77-.02-.39,1.04-2.21,1.24-2.96,1.33-4.91,1.8-12.08,1.23-17.11h6.98Z"/>
            <path class="cls-2" d="M124.2,69.11c.01,2.85-.01,5.71-.01,8.56.01,7.08-.03,14.43,0,21.44.03,7.28.94,16.34.23,23.48-.6,6.04-8.19,6.52-8.78.68-.24-2.36.03-5.31,0-7.76-.14-12.15-.05-24.44,0-36.7.01-3.25-.35-6.45-.24-9.7,2.86.14,5.9-.02,8.78,0"/>
            <path class="cls-1" d="M103.26,62.27c.78,1.62,1.52,3.65,3.15,4.33.64.27,1.09.58,1.72.9-.2,8.75.17,17.84.08,26.58,0,.38.14,1.01-.23,1.25-.12-1.12-1.71-1.79-2.58-2.51-3.16-2.65-6.27-5.37-9.47-7.97-.5-.4-1.07-.98-1.68-1.15-.01-7.14,0-14.3,0-21.44h9.01Z"/>
            <path class="cls-1" d="M26.94,156.46l-.34,33.75h-8.55c-.19,0-.4-.55-.35-.79.08-7.65-.16-15.32.24-22.93,1.03-1.37,2.43-2.46,3.47-3.9,2.51-3.47,1.89-3.48,5.53-6.14"/>
            <path class="cls-1" d="M15.75,11.82c-.35.39-.68,1.91-.76,1.97-.08.06-1.25-.21-1.95.18-1.69.95-.65,3.91-.72,5.42-.03.66-.41,1.43-.41,1.86,0,.62.7.51.13,1.74-.62,1.35-2.51,2.32-3.94,2.42-1.39.09-1.08-1.02-1.61-1.98-.74-1.35-.62-1.31-1.11-2.5-.2-.51-.9-.84-1.09-1.42-.51-1.6.7-2.36.58-3.3-.08-.58-.81-1.14-1.08-1.67-.22-.43-.19-.99-.4-1.41-.5-.97-2.27-1.84-1.56-3.43.61-1.37,3.31-.54,4.69-1.41,1.07-.68,2.06-3.01,2.22-3.11.24-.14,1-.04,1.49-.2,2.05-.67,2.46-1.39,3.86-2.7C16.19.32,18.5-.31,21.41.14c2.52.39,1.68,2.41,2.03,4.1.19.91,1.4,1.97,1.23,2.57-.22.76-1.72.52-2.29.66-1.16.27-1.22,1-1.88,1.51-1.31,1-3.72,1.7-4.74,2.84"/>
            <path class="cls-1" d="M196.24,106.06c.41.85.49,1.9,1.05,2.68.37.52,1.14.76,1.53,1.21,1.42,1.7,1.3,4.24,1.71,6.14l-11.03-9.81c-.06-.37.3-.21.56-.23,2.05-.1,4.14.08,6.19,0"/>
            <path class="cls-2" d="M215.38,252.24c2.03.56,4.36-.41,5.68,1.89,1.34,2.33.03,4.89-1.84,6.44-2.96,2.43-10.71,2.82-14.68,3.6-3.76.74-17.83,4.44-20.5,3.75-.46-.12-1.15-.83-1.74-.98-1.24-.32-1.96.11-3.04.13-4.66.09-9.31.16-13.98.21-.68,0-1.25.33-2,.23-1.96-.27-5.08-2.72-8.24-3.19-4.83-.72-10.06.05-14.97-.23-4.28-.24-8.55-1.29-12.84-1.59-3.67-.26-11.33.42-14.22-1.1-1.95-1.03-6.71-6.98-8.4-8.94l1.45-.24h109.31Z"/>
            <path class="cls-1" d="M204.35,240.61c.69.78,1.73,1.56,2.48,2.39,2.82,3.11,5.63,6.23,8.55,9.24h-109.31s-1.45.23-1.45.23c-.9-1.04-1.71-2.39-2.55-3.34-.4-.45-1.99-2.11-2.4-2.36.55-.79,0-5.93.22-6.16h104.47Z"/>
            <path class="cls-1" d="M1.05,219.17h16.21s.22,27.82.22,27.82c-3.66.44-5.13-.16-8.45-.45-1.7-.15-7.61.41-8.56-.45-.25-.23-.34-.46-.33-.8.04-4.53-.01-9.06,0-13.58.02-3.16-.34-7.38,0-10.38.12-1.02.56-1.35.9-2.17"/>
            <path class="cls-3" d="M181.16,128.18c.05,3.91-.07,7.84,0,11.75,0,.58,0,1.18,0,1.7l-13.06,12.66,1.13,1.37,12.06,10.61c-.24,2.47.25,4.88.06,7.36-.24.82-6.01,5.6-7.08,6.63-1.02.98-2.06,2.3-3.12,3.35-.5.5-3.1,2.59-3.03,3.04,4.2,4.43,8.95,8.27,13.38,12.46.06.93.25,1.97.32,2.87.02.31-.16.61-.15.89.02.91.36,1.97.17,2.96-.25,1.3-8.14,7.59-9.34,9.25l-.95.52-3.43,3.89,13.5,12.56c.55.95-.3,2.61-.01,3.78h-8.89c-.07,0-.26.27-.45.03-5.62-5.02-10.92-10.42-16.54-15.43-.19-.17-.41-.33-.68-.33l17.09-16.95-17.32-16.45,17.56-16.65-17.78-15.39,18.01-16.43-10.13-10.03c1.84-.04,3.68.05,5.52,0,4.43-.1,8.73.02,13.16,0"/>
            <path class="cls-2" d="M45.63,128.63c3.37,0,6.76,0,10.13,0v61.69l-10.58-.11.45-61.57Z"/>
            <path class="cls-3" d="M176.06,74.05c4.71,6.45,9.9,12.91,14.28,19.63.21.32.55.56.5.98l-39.17.46,19.36-27.26c.26-.21.58-.13.8.11,1.24,1.71,2.51,3.39,3.76,5.09.24.33.28.74.47,1"/>
            <path class="cls-1" d="M57.11,246.54l-.23-27.37c5.79-.17,11.53-.19,17.34,0v27.37c-5.7.03-11.41.02-17.11,0"/>
            <path class="cls-1" d="M28.97,245.4l-.35-26.24h16.33v27.38c-4.06-.03-8.71.33-12.66-.29-1.15-.18-2.25-.66-3.33-.85"/>
            <path class="cls-1" d="M108.21,99.22c.27,9.11-.5,18.25-.22,27.37-4.57-.16-9.18.58-13.64-.21-.36-2.26.15-4.49.14-6.75-.01-3.31-.27-6.73-.24-10.14l13.96-10.26Z"/>
            <path class="cls-2" d="M107.99,95.34c.14,1.28.19,2.58.23,3.88l-13.96,10.26c0-.15,0-25.62,0-25.77.61.17,1.18.74,1.68,1.15,3.2,2.6,6.31,5.32,9.47,7.97.87.73,2.46,1.4,2.58,2.51"/>
            <path class="cls-1" d="M160.67,106.29c-2.09,1.36-14.41,12.8-15.65,12.77-.84-.03-9.92-11.27-11.59-12.43l27.24-.34Z"/>
          </g>
          <polygon class="cls-1" points="186.56 106.06 175.42 119.29 162.02 106.06 186.56 106.06"/>
          <g>
            <path class="cls-2" d="M98.31,184.51c-.88-1.21-1.45-2.24-2.25-3.42l2.25,3.42Z"/>
            <path class="cls-1" d="M103.26,195.91c.08,0,.15,0,.23,0l-.11.22-.11-.22Z"/>
            <path class="cls-1" d="M117.5,151.59c3.56,0,6.45,2.93,6.45,6.53s-2.89,6.53-6.45,6.53-6.45-2.93-6.45-6.53,2.89-6.53,6.45-6.53M103.25,168.21c.5.16,2.18.3,2.82.34,6.08.37,12.41-.09,18.46-.25,1.52-.04,6.4.32,7.41-.02.75-.26,1.84-6.25.86-7.19-4.86-7.49-8.9-16.49-13.9-23.77-.41-.6-1.06-1.85-1.96-1.59-.46.14-2.69,4.29-3.12,5.06-3.92,6.93-7.54,14.06-11.48,20.98-.85,1.56-1.12,5.8.93,6.44"/>
            <path class="cls-1" d="M115.24,175.99c-2.2.78-3.8,2.72-4.16,5.06-.36,2.33.58,4.68,2.45,6.1,2.69,2.04,6.49,1.6,8.64-1.02,2.15-2.62,1.9-6.48-.57-8.79-1.71-1.6-4.16-2.12-6.36-1.34"/>
            <path class="cls-1" d="M112.31,210.58c-2.4-4.06-.47-9.46,4.41-10.05,2.48-.3,5.53,1.73,6.47,4.05,2.82,6.97-6.67,13.14-10.88,6M129.15,196.37c-.15,0-24.62-.5-25.66-.46l-.11.22-.11-.22c-.22.01-.47-.03-.67,0-2.37.37-1.54,2.91-.94,4.49,1.29,3.38,3.65,7.48,5.4,10.72,3.3,6.09,7.05,11.95,10.28,18.09l14.03-23.64c.9-1.74,2.1-3.4,2.29-5.43.39-4.09-1.1-3.67-4.5-3.76"/>
          </g>
          <rect class="cls-1" x="64.76" y="128.63" width="9.47" height="61.86"/>
          <g>
            <path class="cls-1" d="M85.98,128.62h2.38l11.54,17.79s.8.77.17,1.76c-.63.99-13.21,19.18-13.21,19.18h-4.08v-35.46c-.01-1.8,1.43-3.26,3.21-3.26"/>
            <path class="cls-1" d="M82.76,167.34h4.1l13.04,19.5s.8.77.17,1.76c-.63.99-13.21,19.18-13.21,19.18h-4.08v-40.44Z"/>
            <path class="cls-1" d="M82.76,207.78h4.1l13.04,19.5s.8.77.17,1.76c-.63.99-12.87,17.49-12.87,17.49h-4.42v-38.75Z"/>
            <path class="cls-1" d="M154.87,128.62h-5.6l-11.54,17.79s-.8.77-.17,1.76c.63.99,13.21,19.18,13.21,19.18h4.08v-38.72Z"/>
            <path class="cls-1" d="M154.87,167.34h-4.1l-13.04,19.5s-.8.77-.17,1.76c.63.99,13.21,19.18,13.21,19.18h4.08v-40.44Z"/>
            <path class="cls-1" d="M154.87,207.78h-4.1l-13.04,19.5s-.8.77-.17,1.76c.63.99,12.87,17.49,12.87,17.49h4.42v-38.75Z"/>
          </g>
        </g>
        <g>
          <path d="M294.49,156.23h18.49l-9.25-34.43-9.24,34.43ZM343.64,190.73c.41,1.19,1.45,1.79,3.13,1.79h1.83v3.37h-30.52v-3.37h1.29c.77,0,1.39-.28,1.87-.83.48-.55.67-1.42.58-2.62l-7.27-26.99h-21.62l-7.68,28.5c-.18.64-.02,1.13.48,1.45.5.32,1.22.48,2.18.48h2.25v3.37h-17.2v-3.37c1.72,0,3.03-.31,3.91-.93.88-.62,1.55-1.59,2.01-2.93l20.26-75.26c-.82-.69-1.84-1.03-3.06-1.03v-3.38c1.22,0,3.18-.03,5.88-.1,2.69-.07,6-.24,9.92-.52,3.92-.28,6.36-.64,7.31-1.1,1.45,1.1,2.27,1.67,2.45,1.72l22.02,81.73Z"/>
          <path d="M389.21,192.52c1.72,0,2.98-.63,3.77-1.89.79-1.26,1.19-2.65,1.19-4.17,0-15.42-.05-27.59-.13-36.49-.05-2.34-.17-4.22-.38-5.65-.2-1.42-.78-2.71-1.73-3.85-.95-1.15-2.31-1.72-4.08-1.72-.54,0-1.13.1-1.77.31-.64.21-1.44.76-2.41,1.65-.97.89-1.83,2.09-2.55,3.58-.73,1.49-1.36,3.72-1.9,6.68-.55,2.96-.82,6.39-.82,10.29v25.2c0,1.52.4,2.9,1.19,4.17.79,1.26,2.05,1.89,3.77,1.89v3.37h-30.52v-3.37c1.63,0,2.84-.56,3.64-1.69.79-1.12,1.23-2.42,1.33-3.89v-38.15c-.09-1.47-.53-2.77-1.33-3.89s-2.01-1.69-3.64-1.69v-3.38h4.96c3.22,0,6.53-.43,9.92-1.31,3.4-.87,6.12-2.25,8.16-4.13,1.4,1.01,2.24,1.56,2.51,1.65v5.3c1-1.28,2.15-2.33,3.47-3.13,1.31-.8,2.79-1.34,4.42-1.62,1.63-.28,2.79-.44,3.47-.48.68-.05,1.7-.07,3.06-.07,4.21,0,7.82.55,10.81,1.65,2.99,1.1,5.24,2.6,6.76,4.51,1.52,1.91,2.6,3.88,3.26,5.92.66,2.04.98,4.28.98,6.72.09,8.08.14,18.7.14,31.88.04,1.52.46,2.86,1.26,4.03.79,1.17,2.03,1.76,3.71,1.76v3.37h-30.52v-3.37Z"/>
          <path d="M455.93,171.93c1.5,0,2.64-1.25,3.43-3.75.79-2.5.85-5.43.17-8.78-.59-2.98-1.45-5.94-2.58-8.88-1.13-2.94-2.64-5.59-4.52-7.95-1.88-2.36-3.84-3.55-5.88-3.55-1.54,0-2.83,1.18-3.87,3.55-1.04,2.36-1.29,4.97-.75,7.81,1.13,5.97,2.97,11.05,5.5,15.25,2.54,4.2,5.37,6.3,8.5,6.3M481.69,124.83c1.86,0,3.46.68,4.79,2.03s2.01,2.97,2.01,4.85-.67,3.5-2.01,4.86-2.93,2.03-4.79,2.03c-2,0-3.63-.69-4.89-2.07-4.53-.05-8.54,1.05-12.03,3.3,4.08,1.52,7.54,4.12,10.4,7.82,2.85,3.7,4.28,7.08,4.28,10.16,0,3.72-1.03,6.92-3.09,9.6-2.06,2.69-4.6,4.61-7.61,5.78-3.01,1.17-6.31,1.76-9.89,1.76-9.88,0-18.15-2.2-24.81-6.61-1.27,1.1-1.79,2.32-1.56,3.65.23,1.19,1.09,2.29,2.58,3.3,1.5,1.01,3.37,1.86,5.61,2.55,2.24.69,4.77,1.43,7.58,2.24,2.81.8,5.64,1.6,8.5,2.38,2.85.78,5.65,1.8,8.39,3.06,2.74,1.26,5.18,2.66,7.31,4.2,2.13,1.54,3.84,3.48,5.13,5.82,1.29,2.34,1.94,4.96,1.94,7.85,0,3.95-1.5,7.51-4.49,10.67-2.99,3.17-6.57,5.54-10.74,7.13-4.17,1.58-8.34,2.37-12.51,2.37-9.34,0-16.29-1.41-20.87-4.23-4.58-2.82-6.86-6.51-6.86-11.05,0-2.66.93-4.95,2.79-6.85,1.86-1.9,4.12-2.86,6.8-2.86s4.87.94,6.73,2.82c1.86,1.88,2.79,4.18,2.79,6.89,0,2.38-.76,4.49-2.28,6.3-1.52,1.81-3.41,2.9-5.68,3.27,2.49,1.15,5.66,1.72,9.52,1.72,3.35,0,6.56-1.02,9.62-3.06,3.06-2.04,4.59-4.46,4.59-7.26,0-2.43-.58-4.58-1.73-6.44-1.16-1.86-2.69-3.37-4.59-4.54-1.9-1.17-4.01-2.24-6.32-3.2-2.31-.96-4.67-1.92-7.07-2.86-2.4-.94-4.65-1.96-6.73-3.06-2.09-1.1-3.88-2.51-5.4-4.24-1.52-1.72-2.48-3.68-2.89-5.89-.95-5.05,1.52-9.18,7.41-12.39-4.94-3.99-7.41-8.58-7.41-13.77s1.93-9.34,5.78-12.33c3.85-2.98,8.95-4.48,15.29-4.48,5.75,0,10.94.76,15.57,2.27.91-1.47,1.97-2.9,3.2-4.3,1.22-1.4,2.71-2.83,4.45-4.3,1.74-1.47,3.77-2.65,6.08-3.55,2.31-.89,4.69-1.34,7.14-1.34"/>
          <path d="M507.35,184.32c1.54,5.19,3.4,7.78,5.57,7.78s4.03-2.59,5.57-7.78c1.54-5.19,2.31-11.43,2.31-18.73s-.77-13.53-2.31-18.69c-1.54-5.17-3.4-7.75-5.57-7.75s-4.03,2.58-5.57,7.75c-1.54,5.16-2.31,11.39-2.31,18.69s.77,13.54,2.31,18.73M510.62,136.06c5.21,0,10.18,1.32,14.92,3.96,4.73,2.64,8.57,6.29,11.52,10.95,2.95,4.66,4.42,9.68,4.42,15.05,0,8.44-2.44,15.54-7.31,21.28-4.87,5.74-11.18,8.61-18.93,8.61-5.21,0-10.18-1.31-14.92-3.92-4.74-2.62-8.58-6.24-11.52-10.88-2.95-4.64-4.42-9.66-4.42-15.08,0-8.45,2.43-15.55,7.31-21.31,4.87-5.76,11.18-8.64,18.93-8.64"/>
          <path d="M576.11,192.52v3.37h-30.52v-3.37c1.63,0,2.84-.56,3.64-1.69.79-1.12,1.23-2.42,1.32-3.89v-65.27c-.09-1.47-.53-2.75-1.32-3.86-.79-1.1-2.01-1.65-3.64-1.65v-3.37c11.51,0,19.19-1.81,23.04-5.44,1.4,1.01,2.24,1.56,2.51,1.65v77.46c0,1.52.4,2.9,1.19,4.17.79,1.26,2.05,1.89,3.77,1.89"/>
          <path d="M605.44,188.66c3.44,0,7.18-3.03,11.22-9.09,0-2.61-.01-6.52-.03-11.7-.02-5.19-.03-8.79-.03-10.81-1,1.33-2.54,2.88-4.62,4.65-2.09,1.77-3.92,3.33-5.5,4.68-1.59,1.35-3.03,3.32-4.32,5.89-1.29,2.57-1.94,5.49-1.94,8.74,0,2.75.57,4.72,1.7,5.89,1.13,1.17,2.31,1.76,3.54,1.76M637.25,186.67c.04,1.51.46,2.87,1.26,4.06.79,1.19,2.03,1.79,3.71,1.79v3.37h-25.56v-11.57c-5.66,7.71-11.99,11.57-18.96,11.57-5.57,0-9.85-1.35-12.85-4.06-2.99-2.71-4.49-6.7-4.49-11.98,0-2.89.67-5.41,2.01-7.57,1.34-2.16,3.07-3.86,5.2-5.13,2.13-1.26,4.47-2.36,7.03-3.31,2.56-.94,5.12-1.8,7.68-2.58,2.56-.78,4.9-1.62,7.03-2.51,2.13-.89,3.86-2.08,5.2-3.55,1.34-1.47,2.01-3.21,2.01-5.23,0-1.74-.07-3.17-.2-4.27-.14-1.1-.44-2.24-.92-3.41-.48-1.17-1.25-2.04-2.31-2.62-1.06-.57-2.43-.86-4.11-.86-.59,0-1.29.15-2.11.45-.82.3-1.7.78-2.65,1.45-.95.67-1.75,1.65-2.38,2.96-.64,1.31-.95,2.81-.95,4.51,0,1.33.17,2.4.51,3.2.34.8.68,1.35,1.02,1.65.34.3.51.5.51.59,0,.87-.75,1.92-2.24,3.13-1.5,1.22-3.42,1.82-5.78,1.82-2.85,0-5.36-.84-7.51-2.51-2.15-1.68-3.23-3.82-3.23-6.44,0-4.13,2.31-7.42,6.93-9.88,4.62-2.45,10.51-3.68,17.67-3.68,3.72,0,7.07.25,10.06.76,2.99.51,5.49,1.23,7.51,2.17,2.02.94,3.74,2,5.17,3.17,1.43,1.17,2.54,2.49,3.33,3.96.79,1.47,1.37,2.91,1.73,4.34.36,1.42.54,2.92.54,4.48.09,8.08.14,18.66.14,31.74"/>
          <path d="M378.53,82.44c-1.75,3.67-19.91,36.84-21.95,40.11h-6.73c-.96-5.39-8.32-40.05-8.32-40.11h7.86c1.13,6.36,3.68,20.11,5.77,30.25,5.04-9.85,13.07-25.1,15.61-30.25h7.75Z"/>
          <path d="M382.21,83.7c0-2.92,2.04-4.81,4.98-4.81,2.6,0,4.24,1.55,4.24,3.95,0,2.92-2.04,4.87-4.92,4.87-2.66,0-4.3-1.6-4.3-4.01M376.04,122.55c1.02-4.87,1.98-10.03,2.88-15.19.96-5.5,1.81-10.89,2.32-14.9h7.92c-.85,4.81-2.04,10.72-3.17,17.19-.74,4.24-1.47,8.94-2.15,12.89h-7.81Z"/>
          <path d="M389.96,120.77l1.75-5.79c2.32,2.06,6.17,2.46,8.48,2.46,3.79,0,7.07-1.49,7.07-4.3,0-1.95-2.26-2.63-5.83-3.67-4.24-1.26-8.15-2.69-8.15-7.05,0-6.65,6.45-10.89,14.03-10.89,3.84,0,7.13,1.09,9.11,2.75l-1.64,5.56c-1.75-1.43-4.98-2.35-7.98-2.35-3.23,0-5.94,1.43-5.94,3.72,0,1.55,1.98,2.12,5.04,3.04,6.68,2.01,8.94,4.3,8.94,7.85,0,7.33-6.68,11.35-14.54,11.35-3.96,0-8.03-.97-10.35-2.69"/>
          <path d="M424.57,83.7c0-2.92,2.04-4.81,4.98-4.81,2.6,0,4.24,1.55,4.24,3.95,0,2.92-2.04,4.87-4.92,4.87-2.66,0-4.3-1.6-4.3-4.01M418.41,122.55c1.02-4.87,1.98-10.03,2.88-15.19.96-5.5,1.81-10.89,2.32-14.9h7.92c-.85,4.81-2.04,10.72-3.17,17.19-.74,4.24-1.47,8.94-2.15,12.89h-7.81Z"/>
          <path d="M446.57,98.77l-2.26,13.06c-.17.8-.28,1.6-.28,2.35,0,1.55.68,2.81,3.73,2.81,2.37,0,4.64-.75,6.17-1.6l-.11,5.96c-2.43,1.55-5.54,2.12-8.6,2.12-7.24,0-8.83-3.44-8.83-7.33,0-1.55.28-3.27.51-4.81l2.21-12.55h-4.35l1.02-5.84h4.69c.74-2.52,1.76-5.79,2.77-9.34h6.11c-.51,2.63-1.19,6.19-1.75,9.34h10.58l-1.41,5.84h-10.18Z"/>
        </g>
      </g>
      <g>
        <path d="M725.98,153.98l-.76,4.24h-10.54c-.94,5.23-1.7,9.16-2.37,13.18-.76,4.07-1.43,8.35-2.41,13.85h-5.14c.54-2.32,1.56-7.64,2.55-13.22.85-4.91,1.74-10.18,2.28-13.8h-10.59l.76-4.24h26.22Z"/>
        <path d="M748.08,167.06c0,1.03-.09,1.92-.22,2.59l-1.34,7.64c-.85,5-1.03,6.48-1.25,7.95h-5.05c.36-1.47.63-3.39,1.47-8.08l1.21-6.61c.09-.63.22-1.38.22-2.19,0-1.52-.54-3.08-3.22-3.08s-5.41,1.43-7.5,3.75l-1.47,8.22c-.89,5-1.25,7.1-1.43,8h-4.87c.27-.76.94-4.78,1.7-9.25,1.52-8.49,3.53-20.32,4.25-24.25h4.91l-2.41,13.49c2.72-2.59,5.9-4.16,9.25-4.16,4.82,0,5.76,3.26,5.76,5.99Z"/>
        <path d="M763.39,175.77l-6.57.89c.31,3.22,2.41,5,6.48,5,3.26,0,5.85-1.12,7.15-2.19l.04,3.84c-2.14,1.88-5.36,2.63-8.26,2.63-6.52,0-10.36-3.8-10.36-9.74,0-8,5.72-15.14,13.58-15.14,4.74,0,7.73,2.55,7.73,6.39,0,5.09-4.15,7.59-9.78,8.31ZM763.08,172.65c3.35-.36,5.58-1.79,5.58-4.51,0-1.83-1.43-2.95-3.8-2.95-4.38,0-7.15,3.8-7.86,8.17l6.08-.72Z"/>
        <path d="M803.31,173.14c2.5,4.16,4.96,8.17,7.37,12.1h-5.99c-1.96-3.84-4.73-8.71-6.48-11.66h-4.87l-2.01,11.66h-4.96c.67-2.77,1.88-9.38,3.08-16.17,1.03-5.9,2.06-11.92,2.55-15.1h9.78c6.3,0,9.69,3.22,9.69,8.17,0,5.45-3.21,9.78-8.17,10.99ZM796.16,158.17c-.58,2.99-1.3,6.92-2.1,11.21h5.67c3.93,0,6.66-2.99,6.66-6.97,0-2.54-1.56-4.24-5.58-4.24h-4.65Z"/>
        <path d="M838.09,167.06c0,1.03-.09,1.92-.22,2.59l-1.34,7.64c-.85,5-1.03,6.48-1.25,7.95h-5.05c.36-1.47.63-3.39,1.47-8.08l1.21-6.61c.09-.63.22-1.38.22-2.19,0-1.52-.54-3.08-3.22-3.08s-5.41,1.43-7.5,3.75l-1.47,8.22c-.89,5-1.25,7.1-1.43,8h-4.87c.27-.76.94-4.78,1.7-9.25,1.52-8.49,3.53-20.32,4.25-24.25h4.91l-2.41,13.49c2.72-2.59,5.9-4.16,9.25-4.16,4.82,0,5.76,3.26,5.76,5.99Z"/>
        <path d="M865.06,161.79c-1.65,3.3-9.78,18.04-14.96,27.56-2.46,4.38-4.65,5.54-7.95,5.54-1.74,0-3.13-.31-4.11-.71l.67-3.8c.22.09,1.83.27,2.77.27,1.83,0,3.08-.8,4.6-3.44l1.29-2.23c-.94-4.6-4.24-18.58-5.13-23.18h5.09c.67,5.13,2.1,11.48,3.35,17.87,3.3-6.16,6.61-12.55,9.33-17.87h5.05Z"/>
        <path d="M875.95,165.81l-2.05,11.66c-.13.67-.22,1.34-.22,1.92,0,1.3.58,2.28,3.08,2.28,1.96,0,3.8-.58,5.09-1.3l-.04,3.89c-1.83,1.25-4.2,1.7-6.52,1.7-5.36,0-6.52-2.5-6.52-5.32,0-1.12.22-2.37.4-3.48l2.01-11.35h-3.62l.72-3.88h3.75l2.05-7.06h3.89c-.4,2.05-.89,4.65-1.3,7.06h8.76l-1.03,3.88h-8.44Z"/>
        <path d="M909.17,167.06c0,1.03-.09,1.92-.22,2.59l-1.34,7.64c-.85,5-1.03,6.48-1.25,7.95h-5.05c.36-1.47.63-3.39,1.47-8.08l1.21-6.61c.09-.63.22-1.38.22-2.19,0-1.52-.54-3.08-3.22-3.08s-5.41,1.43-7.5,3.75l-1.47,8.22c-.89,5-1.25,7.1-1.43,8h-4.87c.27-.76.94-4.78,1.7-9.25,1.52-8.49,3.53-20.32,4.25-24.25h4.91l-2.41,13.49c2.72-2.59,5.9-4.16,9.25-4.16,4.82,0,5.76,3.26,5.76,5.99Z"/>
        <path d="M949.67,166.93c0,1.12-.18,2.1-.27,2.72l-1.52,8.67c-.54,3.04-.76,4.29-1.07,6.92h-5c.54-2.59.8-4.2,1.34-7.19l1.34-7.64c.09-.54.27-1.34.27-2.14,0-1.52-.54-2.99-2.95-2.99s-5,1.43-6.97,3.75c-.04.22-.04.45-.09.62l-1.52,8.67c-.54,3.04-.76,4.29-1.07,6.92h-5.05c.54-2.59.8-4.2,1.34-7.19l1.38-7.64c.09-.54.22-1.34.22-2.14,0-1.52-.54-2.99-2.91-2.99-2.54,0-5.13,1.52-7.19,3.93-.27,2.81-.8,5.9-1.61,10.72-.31,1.52-.58,3.39-.98,5.32h-4.91c.58-2.81,1.16-5.76,1.7-8.84.94-5.41,1.74-10.76,2.1-14.61h4.16c0,1.47-.04,2.77-.13,3.97,2.68-2.86,5.81-4.69,9.25-4.69,3.93,0,5.14,2.37,5.45,4.69,2.68-2.86,5.81-4.69,9.25-4.69,4.55,0,5.45,3.22,5.45,5.85Z"/>
        <path d="M963.63,176.4c0-8.22,6.12-15.32,14.29-15.32,6.07,0,9.78,3.62,9.78,9.51,0,8.22-5.99,15.37-14.16,15.37-6.12,0-9.92-3.66-9.92-9.56ZM982.66,171.17c0-3.62-2.05-5.85-5.5-5.85-5.23,0-8.53,5.36-8.53,10.58,0,3.58,1.96,5.81,5.27,5.81,5.27,0,8.76-5.27,8.76-10.54Z"/>
        <path d="M1000.38,159.78l-.36,2.14h6.75l-1.03,3.88h-6.43l-2.23,12.68c-.45,2.59-.94,5.54-1.16,6.75h-4.96c.36-1.79.98-4.78,1.43-7.33l2.14-12.1h-3.57l.71-3.88h3.53l.4-2.28c.94-5.36,4.65-8.62,9.96-8.62,2.19,0,4.38.58,5.23,1.25l-.89,3.75c-.71-.45-2.19-.67-3.62-.67-3.57,0-5.45,1.83-5.9,4.42Z"/>
        <path d="M1037.4,181.18l-.76,4.07h-19.12c.36-1.43,1.52-8,2.72-15.01,1.21-6.66,2.46-13.76,2.81-16.26h4.96c-.67,3.66-1.83,10.14-2.91,16.21-.71,3.98-1.38,7.95-1.88,10.99h14.16Z"/>
        <path d="M1040.83,185.24c.8-3.8,1.56-7.82,2.28-11.79.76-4.33,1.43-8.53,1.83-11.66h5.13c-.67,3.66-1.61,8.26-2.46,13.26-.62,3.35-1.2,7.01-1.74,10.18h-5.05ZM1045.66,154.83c0-1.97,1.38-3.26,3.44-3.26,1.79,0,2.91,1.03,2.91,2.63,0,1.96-1.43,3.3-3.39,3.3-1.83,0-2.95-1.07-2.95-2.68Z"/>
        <path d="M1062.53,159.78l-.36,2.14h6.75l-1.03,3.88h-6.43l-2.23,12.68c-.45,2.59-.94,5.54-1.16,6.75h-4.96c.36-1.79.98-4.78,1.43-7.33l2.14-12.1h-3.57l.71-3.88h3.53l.4-2.28c.94-5.36,4.65-8.62,9.96-8.62,2.19,0,4.38.58,5.23,1.25l-.89,3.75c-.71-.45-2.19-.67-3.62-.67-3.57,0-5.45,1.83-5.9,4.42Z"/>
        <path d="M1079.95,175.77l-6.57.89c.31,3.22,2.41,5,6.48,5,3.26,0,5.85-1.12,7.15-2.19l.04,3.84c-2.14,1.88-5.36,2.63-8.26,2.63-6.52,0-10.36-3.8-10.36-9.74,0-8,5.72-15.14,13.58-15.14,4.74,0,7.73,2.55,7.73,6.39,0,5.09-4.15,7.59-9.78,8.31ZM1079.64,172.65c3.35-.36,5.58-1.79,5.58-4.51,0-1.83-1.43-2.95-3.8-2.95-4.38,0-7.15,3.8-7.86,8.17l6.08-.72Z"/>
      </g>
    </g>
  </g>
</svg>