<svg xmlns="http://www.w3.org/2000/svg" xmlns:xlink="http://www.w3.org/1999/xlink" xmlns:inkscape="http://www.inkscape.org/namespaces/inkscape" version="1.1" width="595.276" height="595.276" viewBox="0 0 595.276 595.276">
<defs>
<clipPath id="clip_0">
<path transform="matrix(1,0,0,-1,0,595.276)" d="M0 595.276H595.276V0H0Z"/>
</clipPath>
</defs>
<g clip-path="url(#clip_0)">
<path transform="matrix(1,0,0,-1,191.4605,488.80293)" d="M0 0C.378-1.103 1.339-1.654 2.888-1.654H4.581V-4.769H-23.596V-1.654H-22.403C-21.692-1.654-21.116-1.398-20.677-.891-20.238-.382-20.061 .422-20.144 1.525L-26.859 26.444H-46.815L-53.907 .127C-54.075-.467-53.927-.913-53.468-1.208-53.007-1.505-52.338-1.654-51.46-1.654H-49.387V-4.769H-65.266V-1.654C-63.677-1.654-62.473-1.366-61.658-.795-60.843-.223-60.225 .677-59.806 1.907L-41.104 71.389C-41.858 72.023-42.799 72.34-43.929 72.34V75.457C-42.799 75.457-40.99 75.488-38.5 75.551-36.012 75.615-32.957 75.774-29.337 76.028-25.721 76.283-23.469 76.622-22.591 77.044-21.255 76.028-20.5 75.499-20.333 75.457ZM-45.371 31.847H-28.302L-36.839 63.633Z"/>
<path transform="matrix(1,0,0,-1,233.5394,490.4563)" d="M0 0C1.59 0 2.751 .583 3.483 1.748 4.215 2.914 4.581 4.195 4.581 5.595 4.581 19.835 4.538 31.063 4.457 39.286 4.415 41.447 4.3 43.184 4.11 44.499 3.922 45.812 3.389 46.999 2.512 48.058 1.632 49.116 .378 49.647-1.256 49.647-1.757 49.647-2.301 49.553-2.886 49.362-3.472 49.17-4.215 48.663-5.114 47.837-6.013 47.01-6.799 45.908-7.467 44.53-8.138 43.153-8.722 41.098-9.224 38.364-9.727 35.631-9.978 32.463-9.978 28.861V5.595C-9.978 4.195-9.613 2.914-8.879 1.748-8.149 .583-6.987 0-5.396 0V-3.115H-33.575V0C-32.068 0-30.949 .52-30.217 1.558-29.485 2.595-29.077 3.793-28.992 5.149V40.366C-29.077 41.723-29.485 42.92-30.217 43.958-30.949 44.997-32.068 45.515-33.575 45.515V48.631H-28.992C-26.021 48.631-22.968 49.031-19.831 49.837-16.692 50.643-14.183 51.914-12.3 53.653-11.003 52.72-10.229 52.212-9.978 52.128V47.232C-9.058 48.417-7.99 49.382-6.777 50.125-5.564 50.866-4.204 51.364-2.698 51.619-1.191 51.873-.125 52.021 .503 52.063 1.13 52.105 2.071 52.128 3.327 52.128 7.218 52.128 10.542 51.619 13.305 50.601 16.067 49.585 18.145 48.196 19.549 46.437 20.95 44.678 21.953 42.856 22.562 40.971 23.167 39.085 23.471 37.019 23.471 34.771 23.554 27.314 23.596 17.504 23.596 5.34 23.637 3.941 24.024 2.702 24.758 1.621 25.488 .54 26.63 0 28.179 0V-3.115H0Z"/>
<path transform="matrix(1,0,0,-1,318.921,427.9677)" d="M0 0C1.715 0 3.19-.625 4.424-1.875 5.658-3.126 6.275-4.619 6.275-6.356 6.275-8.095 5.658-9.589 4.424-10.839 3.19-12.09 1.715-12.715 0-12.715-1.842-12.715-3.347-12.079-4.518-10.808-8.702-10.766-12.405-11.782-15.626-13.858-11.861-15.258-8.662-17.662-6.025-21.074-3.389-24.485-2.071-27.611-2.071-30.451-2.071-33.883-3.024-36.839-4.927-39.317-6.832-41.797-9.174-43.577-11.955-44.657-14.738-45.738-17.782-46.278-21.085-46.278-30.207-46.278-37.842-44.244-43.992-40.176-45.163-41.192-45.646-42.315-45.436-43.545-45.227-44.648-44.431-45.664-43.051-46.595-41.67-47.529-39.944-48.312-37.873-48.948-35.802-49.583-33.47-50.273-30.875-51.014-28.282-51.755-25.667-52.487-23.03-53.208-20.397-53.929-17.812-54.87-15.28-56.037-12.75-57.202-10.502-58.495-8.534-59.913-6.569-61.333-4.99-63.124-3.797-65.285-2.604-67.446-2.008-69.862-2.008-72.532-2.008-76.176-3.389-79.462-6.15-82.385-8.912-85.309-12.217-87.504-16.065-88.964-19.916-90.427-23.764-91.157-27.613-91.157-36.232-91.157-42.653-89.855-46.879-87.248-51.104-84.642-53.217-81.242-53.217-77.046-53.217-74.586-52.36-72.479-50.645-70.719-48.928-68.962-46.839-68.082-44.368-68.082-41.943-68.082-39.872-68.951-38.155-70.688-36.44-72.427-35.583-74.544-35.583-77.046-35.583-79.248-36.284-81.188-37.685-82.862-39.088-84.535-40.833-85.542-42.926-85.881-40.624-86.941-37.696-87.471-34.139-87.471-31.043-87.471-28.083-86.527-25.26-84.642-22.435-82.755-21.024-80.52-21.024-77.935-21.024-75.689-21.557-73.709-22.623-71.992-23.691-70.275-25.103-68.877-26.86-67.797-28.618-66.716-30.563-65.731-32.697-64.841-34.829-63.952-37.006-63.072-39.223-62.202-41.441-61.333-43.512-60.391-45.436-59.375-47.361-58.357-49.022-57.053-50.424-55.464-51.827-53.874-52.716-52.063-53.092-50.029-53.97-45.367-51.691-41.554-46.253-38.587-50.813-34.901-53.092-30.661-53.092-25.874-53.092-21.041-51.314-17.249-47.757-14.494-44.202-11.739-39.496-10.362-33.637-10.362-28.325-10.362-23.534-11.061-19.267-12.46-18.429-11.103-17.447-9.779-16.316-8.486-15.188-7.194-13.817-5.87-12.206-4.514-10.596-3.157-8.724-2.065-6.589-1.239-4.455-.413-2.259 0 0 0M-23.785-43.481C-22.403-43.481-21.349-42.326-20.615-40.016-19.884-37.707-19.831-35.006-20.458-31.911-21.004-29.158-21.799-26.423-22.844-23.711-23.89-21-25.28-18.553-27.015-16.37-28.754-14.186-30.563-13.095-32.444-13.095-33.868-13.095-35.061-14.186-36.022-16.37-36.984-18.553-37.215-20.958-36.711-23.584-35.668-29.094-33.973-33.787-31.629-37.665-29.287-41.543-26.672-43.481-23.785-43.481"/>
<path transform="matrix(1,0,0,-1,345.625,438.32923)" d="M0 0C4.809 0 9.403-1.219 13.775-3.655 18.145-6.093 21.692-9.462 24.412-13.762 27.132-18.064 28.491-22.695 28.491-27.653 28.491-35.45 26.241-41.998 21.745-47.296 17.247-52.594 11.422-55.242 4.267-55.242-.546-55.242-5.136-54.034-9.508-51.619-13.88-49.203-17.426-45.854-20.144-41.574-22.864-37.294-24.223-32.653-24.223-27.653-24.223-19.855-21.976-13.297-17.478-7.977-12.98-2.661-7.155 0 0 0M-3.013-44.561C-1.591-49.352 .125-51.746 2.134-51.746 4.142-51.746 5.857-49.352 7.278-44.561 8.7-39.774 9.412-34.01 9.412-27.272 9.412-20.534 8.7-14.78 7.278-10.013 5.857-5.244 4.142-2.86 2.134-2.86 .125-2.86-1.591-5.244-3.013-10.013-4.437-14.78-5.147-20.534-5.147-27.272-5.147-34.01-4.437-39.774-3.013-44.561"/>
<path transform="matrix(1,0,0,-1,406.0907,490.4563)" d="M0 0V-3.115H-28.177V0C-26.671 0-25.551 .52-24.819 1.558-24.087 2.595-23.679 3.793-23.596 5.149V65.412C-23.679 66.768-24.087 67.955-24.819 68.973-25.551 69.989-26.671 70.498-28.177 70.498V73.613C-17.55 73.613-10.46 75.287-6.902 78.634-5.606 77.703-4.831 77.194-4.581 77.109V5.595C-4.581 4.195-4.216 2.914-3.482 1.748-2.751 .583-1.59 0 0 0"/>
<path transform="matrix(1,0,0,-1,462.5412,485.0527)" d="M0 0C.041-1.398 .428-2.65 1.16-3.751 1.892-4.854 3.032-5.403 4.581-5.403V-8.518H-19.016V2.161C-24.246-4.959-30.082-8.518-36.525-8.518-41.67-8.518-45.624-7.269-48.384-4.769-51.147-2.268-52.528 1.42-52.528 6.294-52.528 8.962-51.91 11.293-50.676 13.286-49.443 15.278-47.842 16.855-45.874 18.022-43.909 19.187-41.744 20.203-39.38 21.074-37.016 21.942-34.653 22.735-32.288 23.456-29.925 24.177-27.76 24.952-25.793 25.778-23.827 26.604-22.226 27.694-20.993 29.051-19.759 30.407-19.141 32.016-19.141 33.883-19.141 35.492-19.204 36.807-19.329 37.823-19.455 38.841-19.737 39.889-20.176 40.971-20.615 42.052-21.326 42.856-22.311 43.387-23.294 43.916-24.559 44.182-26.106 44.182-26.65 44.182-27.299 44.043-28.052 43.767-28.806 43.492-29.621 43.046-30.499 42.432-31.378 41.818-32.11 40.907-32.697 39.699-33.283 38.491-33.575 37.102-33.575 35.535-33.575 34.305-33.418 33.32-33.104 32.579-32.789 31.838-32.477 31.329-32.162 31.054-31.849 30.777-31.692 30.596-31.692 30.514-31.692 29.708-32.382 28.743-33.763 27.62-35.144 26.497-36.922 25.937-39.098 25.937-41.733 25.937-44.045 26.709-46.031 28.256-48.019 29.804-49.013 31.786-49.013 34.2-49.013 38.015-46.879 41.054-42.611 43.322-38.343 45.589-32.905 46.723-26.296 46.723-22.864 46.723-19.768 46.49-17.008 46.024-14.245 45.557-11.935 44.89-10.072 44.021-8.212 43.153-6.622 42.179-5.303 41.097-3.985 40.016-2.962 38.799-2.228 37.442-1.497 36.084-.964 34.751-.627 33.438-.293 32.123-.125 30.746-.125 29.306-.042 21.846 0 12.079 0 0M-29.37-1.844C-26.191-1.844-22.739 .953-19.016 6.548-19.016 8.962-19.027 12.565-19.047 17.354-19.069 22.143-19.079 25.47-19.079 27.334-19.999 26.104-21.422 24.673-23.346 23.043-25.271 21.411-26.964 19.971-28.428 18.721-29.894 17.471-31.222 15.658-32.413 13.286-33.606 10.911-34.202 8.221-34.202 5.213-34.202 2.67-33.68 .859-32.634-.223-31.589-1.304-30.499-1.844-29.37-1.844"/>
<path transform="matrix(1,0,0,-1,334.0899,509.03199)" d="M0 0-.249-1.357H-4.573C-4.966-3.601-5.287-5.339-5.575-7.022-5.877-8.685-6.144-10.406-6.539-12.669H-8.112C-7.915-11.745-7.538-9.809-7.109-7.349-6.79-5.501-6.379-2.914-6.128-1.357H-10.469L-10.236 0Z"/>
<path transform="matrix(1,0,0,-1,342.6674,514.2435)" d="M0 0C0-.382-.053-.741-.107-1.033L-.679-4.326C-.983-6.172-1.053-6.733-1.16-7.457H-2.714C-2.554-6.751-2.447-6.008-2.126-4.273L-1.59-1.158C-1.555-.924-1.499-.653-1.499-.382-1.499 .433-1.894 .994-2.93 .994-4.145 .994-5.359 .234-6.272-.815L-6.86-4.217C-7.218-6.244-7.36-7.131-7.45-7.457H-8.933C-8.826-7.094-8.558-5.54-8.254-3.729-7.645-.29-6.841 4.523-6.557 6.117H-5.038L-6.037 .526C-4.949 1.665-3.697 2.335-2.305 2.335-.483 2.335 0 1.177 0 0"/>
<path transform="matrix(1,0,0,-1,348.7256,517.7732)" d="M0 0-2.949-.361C-2.877-1.901-2.001-2.823-.214-2.823 1.02-2.823 2.091-2.37 2.681-1.864V-3.168C1.894-3.891 .679-4.217-.465-4.217-2.965-4.217-4.45-2.679-4.45-.29-4.45 2.897-2.215 5.864 .857 5.864 2.681 5.864 3.825 4.831 3.825 3.33 3.825 1.285 2.18 .254 0 0M-.089 1.086C1.394 1.213 2.394 1.918 2.394 3.131 2.394 3.981 1.733 4.507 .662 4.507-1.287 4.507-2.554 2.788-2.877 .797Z"/>
<path transform="matrix(1,0,0,-1,364.6643,512.2357)" d="M0 0-.321-1.538C-.607-1.304-1.108-1.195-1.59-1.195-2.786-1.195-3.751-1.901-4.61-3.113-4.752-4.217-4.949-5.466-5.27-7.328-5.377-7.926-5.484-8.685-5.646-9.464H-7.164C-6.932-8.324-6.663-6.95-6.486-5.899-6.109-3.745-5.788-1.52-5.646 .037H-4.431C-4.448-.634-4.466-1.23-4.501-1.792-3.27-.216-2.268 .326-1.287 .326-.804 .326-.321 .181 0 0"/>
<path transform="matrix(1,0,0,-1,373.5622,514.2435)" d="M0 0C0-.382-.053-.741-.107-1.033L-.679-4.326C-.981-6.172-1.053-6.733-1.16-7.457H-2.714C-2.554-6.751-2.447-6.008-2.124-4.273L-1.59-1.158C-1.555-.924-1.499-.653-1.499-.382-1.499 .433-1.894 .994-2.93 .994-4.144 .994-5.359 .234-6.272-.815L-6.86-4.217C-7.218-6.244-7.36-7.131-7.45-7.457H-8.933C-8.826-7.094-8.558-5.54-8.254-3.729-7.645-.29-6.841 4.523-6.557 6.117H-5.038L-6.037 .526C-4.948 1.665-3.697 2.335-2.303 2.335-.481 2.335 0 1.177 0 0"/>
<path transform="matrix(1,0,0,-1,384.356,512.1993)" d="M0 0C-.697-1.339-4.234-7.798-6.093-11.256-7.057-12.975-7.896-13.41-9.13-13.41-9.718-13.41-10.201-13.301-10.559-13.157L-10.327-11.907C-10.183-11.944-9.63-12.034-9.272-12.034-8.486-12.034-7.968-11.691-7.325-10.55L-6.681-9.429C-7.039-7.601-8.396-1.881-8.754 0H-7.146C-6.86-2.117-6.181-5.012-5.645-7.728-4.269-5.121-2.751-2.226-1.608 0Z"/>
<path transform="matrix(1,0,0,-1,387.6801,513.4301)" d="M0 0-.964-5.429C-1.018-5.7-1.053-5.971-1.053-6.226-1.053-6.768-.821-7.203 .214-7.203 1.02-7.203 1.768-6.95 2.305-6.659V-7.891C1.626-8.379 .714-8.56-.144-8.56-2.108-8.56-2.537-7.62-2.537-6.55-2.537-6.135-2.466-5.683-2.394-5.267L-1.466 0H-3.019L-2.805 1.23H-1.215L-.43 4.035H.714C.553 3.203 .374 2.191 .214 1.23H3.788L3.448 0Z"/>
<path transform="matrix(1,0,0,-1,400.6338,514.2435)" d="M0 0C0-.382-.053-.741-.107-1.033L-.679-4.326C-.981-6.172-1.053-6.733-1.16-7.457H-2.714C-2.554-6.751-2.447-6.008-2.126-4.273L-1.59-1.158C-1.555-.924-1.499-.653-1.499-.382-1.499 .433-1.894 .994-2.93 .994-4.145 .994-5.359 .234-6.272-.815L-6.86-4.217C-7.218-6.244-7.36-7.131-7.45-7.457H-8.933C-8.826-7.094-8.558-5.54-8.254-3.729-7.645-.29-6.841 4.523-6.557 6.117H-5.038L-6.037 .526C-4.949 1.665-3.697 2.335-2.305 2.335-.483 2.335 0 1.177 0 0"/>
<path transform="matrix(1,0,0,-1,416.6981,514.226)" d="M0 0C0-.398-.053-.76-.107-1.049L-.732-4.669C-.946-5.899-1.036-6.388-1.16-7.474H-2.714C-2.501-6.425-2.394-5.772-2.18-4.56L-1.571-1.176C-1.536-.94-1.483-.651-1.483-.361-1.483 .435-1.875 .977-2.821 .977-3.983 .977-5.145 .199-6.021-.869-6.021-.94-6.037-.996-6.037-1.049L-6.663-4.669C-6.878-5.899-6.969-6.388-7.092-7.474H-8.647C-8.433-6.425-8.324-5.772-8.112-4.56L-7.522-1.176C-7.485-.94-7.432-.651-7.432-.361-7.432 .435-7.806 .977-8.754 .977-9.934 .977-11.131 .162-12.005-.94-12.13-2.063-12.344-3.312-12.667-5.248-12.774-5.864-12.899-6.659-13.06-7.474H-14.579C-14.347-6.334-14.096-5.049-13.9-3.909-13.524-1.737-13.203 .47-13.06 2.027H-11.844L-11.898 .29C-10.808 1.538-9.558 2.316-8.129 2.316-6.557 2.316-6.021 1.357-5.949 .308-4.859 1.538-3.625 2.316-2.196 2.316-.446 2.316 0 1.158 0 0"/>
<path transform="matrix(1,0,0,-1,422.2212,518.1353)" d="M0 0C0 3.312 2.377 6.226 5.628 6.226 8.003 6.226 9.434 4.759 9.434 2.408 9.434-.922 7.111-3.854 3.86-3.854 1.484-3.854 0-2.37 0 0M7.88 2.209C7.88 3.872 6.95 4.868 5.396 4.868 3.037 4.868 1.536 2.534 1.536 .146 1.536-1.483 2.412-2.497 3.948-2.497 6.307-2.497 7.88-.181 7.88 2.209"/>
<path transform="matrix(1,0,0,-1,436.534,511.14973)" d="M0 0-.179-1.049H2.698L2.359-2.281H-.393L-1.341-7.69C-1.536-8.794-1.733-9.989-1.824-10.568L-3.341-10.533C-3.198-9.864-2.984-8.722-2.805-7.745L-1.859-2.281H-3.376L-3.163-1.049H-1.645L-1.448 .072C-1.108 2.045 .286 3.312 2.268 3.312 3.056 3.312 3.913 3.113 4.199 2.823L3.93 1.628C3.646 1.811 3.019 1.936 2.43 1.936 .964 1.936 .195 1.177 0 0"/>
<path transform="matrix(1,0,0,-1,443.4855,519.691)" d="M0 0C0 .308 .035 .634 .089 .977L1.322 8.071C1.499 9.086 1.697 10.297 1.894 11.564H3.448C3.216 10.406 2.912 8.903 2.733 7.837L1.518 .869C1.464 .542 1.429 .254 1.429 .037 1.429-.669 1.715-.924 2.447-.924 2.965-.924 3.216-.869 3.448-.797L3.43-2.082C3.091-2.207 2.644-2.3 2.233-2.3 .644-2.3 0-1.394 0 0"/>
<path transform="matrix(1,0,0,-1,448.4179,521.7001)" d="M0 0C.321 1.538 .625 3.168 .911 4.76 1.215 6.533 1.483 8.234 1.661 9.501H3.251C2.982 8.053 2.607 6.19 2.268 4.162 2.017 2.805 1.787 1.32 1.571 0ZM1.91 12.342C1.91 13.03 2.394 13.482 3.072 13.482 3.662 13.482 4.037 13.12 4.037 12.578 4.037 11.909 3.555 11.437 2.893 11.437 2.287 11.437 1.91 11.8 1.91 12.342"/>
<path transform="matrix(1,0,0,-1,456.4045,511.14973)" d="M0 0-.179-1.049H2.698L2.359-2.281H-.393L-1.341-7.69C-1.536-8.794-1.733-9.989-1.824-10.568L-3.341-10.533C-3.198-9.864-2.984-8.722-2.805-7.745L-1.859-2.281H-3.376L-3.163-1.049H-1.645L-1.448 .072C-1.108 2.045 .286 3.312 2.268 3.312 3.056 3.312 3.913 3.113 4.199 2.823L3.93 1.628C3.646 1.811 3.019 1.936 2.43 1.936 .964 1.936 .195 1.177 0 0"/>
<path transform="matrix(1,0,0,-1,463.6227,517.7732)" d="M0 0-2.949-.361C-2.877-1.901-2.001-2.823-.214-2.823 1.018-2.823 2.091-2.37 2.679-1.864V-3.168C1.894-3.891 .679-4.217-.465-4.217-2.965-4.217-4.45-2.679-4.45-.29-4.45 2.897-2.215 5.864 .857 5.864 2.679 5.864 3.825 4.831 3.825 3.33 3.825 1.285 2.18 .254 0 0M-.089 1.086C1.394 1.213 2.394 1.918 2.394 3.131 2.394 3.981 1.733 4.507 .662 4.507-1.287 4.507-2.554 2.788-2.877 .797Z"/>
<path transform="matrix(1,0,0,-1,223.6799,388.825)" d="M0 0C-1.619-3.386-18.383-34.015-20.262-37.032H-26.479C-27.366-32.059-34.156-.053-34.156 0H-26.895C-25.852-5.873-23.501-18.57-21.57-27.932-16.921-18.833-9.504-4.761-7.155 0Z"/>
<path transform="matrix(1,0,0,-1,221.379,425.85639)" d="M0 0C.94 4.496 1.827 9.259 2.663 14.02 3.55 19.099 4.334 24.07 4.804 27.773H12.115C11.332 23.331 10.236 17.88 9.193 11.903 8.512 7.988 7.834 3.649 7.207 0ZM5.693 35.869C5.693 38.566 7.574 40.313 10.288 40.313 12.691 40.313 14.205 38.884 14.205 36.662 14.205 33.964 12.326 32.166 9.661 32.166 7.207 32.166 5.693 33.647 5.693 35.869"/>
<path transform="matrix(1,0,0,-1,234.2242,424.2164)" d="M0 0 1.619 5.344C3.76 3.439 7.312 3.068 9.453 3.068 12.951 3.068 15.981 4.444 15.981 7.037 15.981 8.835 13.893 9.469 10.601 10.423 6.685 11.586 3.081 12.908 3.081 16.928 3.081 23.065 9.034 26.98 16.034 26.98 19.584 26.98 22.614 25.975 24.443 24.441L22.927 19.309C21.308 20.631 18.332 21.478 15.564 21.478 12.586 21.478 10.08 20.155 10.08 18.04 10.08 16.611 11.907 16.082 14.728 15.236 20.891 13.384 22.979 11.269 22.979 7.988 22.979 1.217 16.816-2.486 9.558-2.486 5.901-2.486 2.141-1.588 0 0"/>
<path transform="matrix(1,0,0,-1,260.4916,425.85639)" d="M0 0C.94 4.496 1.827 9.259 2.663 14.02 3.55 19.099 4.334 24.07 4.804 27.773H12.115C11.332 23.331 10.236 17.88 9.193 11.903 8.512 7.988 7.834 3.649 7.207 0ZM5.693 35.869C5.693 38.566 7.574 40.313 10.288 40.313 12.691 40.313 14.205 38.884 14.205 36.662 14.205 33.964 12.326 32.166 9.661 32.166 7.207 32.166 5.693 33.647 5.693 35.869"/>
<path transform="matrix(1,0,0,-1,286.4976,403.9017)" d="M0 0-2.089-12.062C-2.246-12.803-2.349-13.543-2.349-14.232-2.349-15.66-1.722-16.823 1.097-16.823 3.29-16.823 5.381-16.135 6.79-15.342L6.685-20.843C4.439-22.272 1.567-22.802-1.252-22.802-7.939-22.802-9.401-19.628-9.401-16.03-9.401-14.601-9.139-13.013-8.931-11.586L-6.895 0H-10.915L-9.974 5.396H-5.641C-4.962 7.723-4.02 10.74-3.081 14.018H2.56C2.089 11.586 1.462 8.306 .94 5.396H10.707L9.401 0Z"/>
<path transform="matrix(1,0,0,-1,261.5402,104.572208)" d="M0 0C.715-1.112 1.813-3.05 2.79-3.854 3.566-4.49 3.957-4.24 4.745-4.57 6.111-5.141 7.33-7.138 7.861-8.477 7.992-8.807 8.398-9.159 8.346-9.655 8.746-27.902 8.295-40.139 8.295-61.606 8.51-69.722 3.343-71.086-1.132-71.427-8.619-71.997-17.34-71.343-24.992-71.404-31.113-71.451-37.351-71.688-43.483-71.678-47.717-71.675-51.873-71.616-56.048-71.418-57.265-68.671-58.401-67.529-58.351-64.099-58.305-60.868-56.74-59.456-55.672-56.771-53.645-51.676-54.097-50.411-55.794-45.471-55.028-45.614-55.303-45.078-55.286-44.584-54.855-32.548-47.304-20.154-35.208-17.386-27.185-15.551-17.308-18.605-12.934-25.946-9.652-31.454-9.176-37.176-11.665-43.158-15.23-49.721-23.709-53.276-29.805-47.789-33.403-44.549-34.067-38.161-29.083-36.178-25.352-34.694-26.693-37.419-24.231-38.29-21.633-39.206-19.296-38.382-18.394-35.701-16.932-31.354-21.077-27.251-25.096-26.576-40.322-24.017-48.635-43.874-37.03-54.337-22.603-67.347-.668-56.395 .518-37.646 2.076-12.991-24.115 .354-44.552-10.745-53.334-15.514-56.441-21.218-60.791-29.748-61.001-30.161-60.94-30.619-61.628-30.571-63.85-25.002-66.054-17.845-69.224-12.962-69.371-12.735-69.676-12.512-69.906-12.363-71.665-11.24-73.681-8.658-74.92-6.657-75.514-5.702-77.585-2.676-76.082-1.927-72.868-1.717-69.148-.011-66.076 .267-64.599 .402-62.565 .254-60.983 .269-40.674 .452-20.412-.273 0 0" fill="#d74b29"/>
<path transform="matrix(1,0,0,-1,382.0058,213.75351)" d="M0 0C.125 0 .503 .251 .874 .258 2.429 .29 3.994 .267 5.545 .221 6.561-2.676 7.634-5.565 8.831-8.394 10.729-12.873 12.901-17.391 15.033-21.647 17.345-26.261 19.905-30.74 22.105-35.408 22.693-35.498 23.512-35.609 23.971-35.199L36.396-12.848 49.457-35.706 54.02-28.773H54.272C54.353-29.791 54.818-30.674 54.8-31.725 54.763-33.698 53.341-35.609 53.256-37.646 53.206-38.812 53.583-39.538 53.765-40.589 53.78-40.672 53.749-40.765 53.765-40.848L.253-41.362C.47-39.092 .551-36.829 .518-34.543 .42-28.146 .077-21.515 0-15.156-.007-14.568-.002-13.891-.011-13.24-.074-8.829 .059-4.407 0 0" fill="#e49e2f"/>
<path transform="matrix(1,0,0,-1,186.9784,293.6485)" d="M0 0 74.14 .011 74.581-1.409C74.066-4.975 74.736-8.555 74.525-12.167L-3.297-12.331C-2.72-10.116-2.047-7.856-1.521-5.652-1.105-3.9-.284-1.641 0 0" fill="#e49e2f"/>
<path transform="matrix(1,0,0,-1,217.919,202.44989)" d="M0 0C-1.531 2.7-2.36 5.191-3.76 7.88-5.09 10.43-6.124 12.211-7.354 14.9L54.527 14.514V.9C54.527 .854 54.136 .446 54.016 .389 36.514-.022 18.922 .481 1.39 .262 .963 .256 .264 .426 0 0" fill="#d74b29"/>
<path transform="matrix(1,0,0,-1,364.2529,128.9773)" d="M0 0-37.156-49.837-37.281-18.24C-35.19-18.201-30.427-18.682-29.049-16.945-28.015-15.639-28.467-13.698-27.873-12.741-27.522-12.178-26.427-11.984-25.855-11.444-24.336-10.008-24.397-6.543-24.026-4.564-23.914-3.965-23.353-3.522-23.619-2.733-23.75-2.344-24.653-2.307-24.539-1.453-24.345 .004-21.808 .454-20.64 .487-19.027 .533-16.738 .018-15.101-.011-10.085-.103-5.003-.068 0 0" fill="#d74b29"/>
<path transform="matrix(1,0,0,-1,229.3316,214.26709)" d="M0 0-.507-69.362C-1.802-69.355-9.764-69.53-10.161-69.25-10.268-69.174-10.332-69.069-10.364-68.942-10.373-53.787-10.482-38.631-10.38-23.477-10.376-23.003-10.648-22.671-10.651-22.606-10.675-22.171-9.478-20.115-9.252-19.272-7.758-13.738-7.229-5.659-7.861 0Z" fill="#d74b29"/>
<path transform="matrix(1,0,0,-1,317.842,147.21701)" d="M0 0C.017-3.211-.017-6.43-.013-9.644 0-17.624-.044-25.898-.009-33.794 .026-42 1.053-52.2 .251-60.24-.428-67.042-8.977-67.581-9.635-61.01-9.901-58.353-9.596-55.025-9.626-52.268-9.781-38.579-9.685-24.732-9.626-10.93-9.611-7.264-10.022-3.668-9.891 0-6.67-.16-3.249 .024 0 0" fill="#e49e2f"/>
<path transform="matrix(1,0,0,-1,294.256,139.5102)" d="M0 0C.881-1.824 1.711-4.107 3.55-4.881 4.265-5.182 4.782-5.53 5.49-5.894 5.263-15.754 5.685-25.988 5.584-35.841 5.58-36.274 5.746-36.982 5.326-37.25 5.189-35.992 3.399-35.238 2.416-34.417-1.147-31.437-4.645-28.373-8.252-25.442-8.813-24.987-9.462-24.343-10.144-24.148-10.157-16.102-10.133-8.044-10.146 .002Z" fill="#d74b29"/>
<path transform="matrix(1,0,0,-1,208.2818,245.60861)" d="M0 0-.38-38.021H-10.017C-10.227-38.021-10.467-37.397-10.412-37.135-10.321-28.52-10.589-19.875-10.144-11.304-8.984-9.762-7.409-8.534-6.235-6.913-3.404-3.008-4.109-2.991 0 0" fill="#d74b29"/>
<path transform="matrix(1,0,0,-1,195.6784,82.68329)" d="M0 0C-.393-.439-.763-2.156-.859-2.224-.952-2.29-2.27-1.992-3.054-2.432-4.96-3.5-3.788-6.832-3.869-8.536-3.906-9.285-4.335-10.146-4.328-10.635-4.319-11.334-3.539-11.206-4.177-12.599-4.874-14.114-7.007-15.217-8.61-15.326-10.181-15.431-9.825-14.181-10.421-13.098-11.26-11.579-11.121-11.625-11.671-10.277-11.902-9.707-12.689-9.327-12.897-8.673-13.471-6.869-12.106-6.019-12.246-4.955-12.331-4.297-13.157-3.668-13.46-3.074-13.711-2.585-13.67-1.958-13.915-1.481-14.479-.391-16.475 .586-15.669 2.384-14.979 3.928-11.942 2.993-10.391 3.974-9.182 4.741-8.075 7.367-7.887 7.472-7.616 7.625-6.757 7.522-6.209 7.701-3.895 8.459-3.434 9.264-1.859 10.745 .496 12.962 3.091 13.674 6.373 13.163 9.211 12.72 8.265 10.445 8.658 8.54 8.872 7.511 10.236 6.316 10.045 5.641 9.801 4.78 8.106 5.051 7.461 4.9 6.155 4.595 6.091 3.769 5.339 3.198 3.858 2.071 1.147 1.285 0 0" fill="#d74b29"/>
<path transform="matrix(1,0,0,-1,398.9977,188.83429)" d="M0 0C.457-.963 .557-2.145 1.178-3.019 1.599-3.607 2.467-3.871 2.897-4.387 4.498-6.307 4.361-9.169 4.818-11.304L-7.607-.254C-7.675 .168-7.264-.015-6.978 0-4.664 .114-2.316-.085 0 0" fill="#d74b29"/>
<path transform="matrix(1,0,0,-1,420.5547,353.5057)" d="M0 0C2.288-.631 4.907 .463 6.393-2.13 7.9-4.759 6.428-7.642 4.315-9.379 .983-12.121-7.751-12.56-12.221-13.439-16.46-14.275-32.304-18.441-35.317-17.664-35.83-17.531-36.615-16.735-37.274-16.563-38.672-16.198-39.481-16.685-40.695-16.709-45.946-16.816-51.184-16.884-56.439-16.945-57.208-16.954-57.842-17.317-58.689-17.203-60.896-16.903-64.415-14.144-67.968-13.615-73.412-12.805-79.296-13.672-84.83-13.356-89.647-13.082-94.467-11.909-99.291-11.562-103.422-11.267-112.05-12.038-115.312-10.323-117.51-9.167-122.875-2.456-124.778-.256L-123.14 .011Z" fill="#e49e2f"/>
<path transform="matrix(1,0,0,-1,408.1278,340.4037)" d="M0 0C.778-.881 1.953-1.761 2.796-2.69 5.975-6.196 9.137-9.707 12.427-13.102L-110.713-13.091-112.351-13.358C-113.363-12.187-114.278-10.668-115.224-9.591-115.674-9.082-117.466-7.218-117.929-6.935-117.307-6.043-117.931-.256-117.678 .002Z" fill="#d74b29"/>
<path transform="matrix(1,0,0,-1,179.1164,316.2555)" d="M0 0 18.262 .002 18.514-31.341C14.389-31.836 12.731-31.161 8.999-30.833 7.089-30.663 .422-31.299-.649-30.329-.933-30.073-1.035-29.809-1.025-29.427-.985-24.329-1.04-19.224-1.014-14.129-.996-10.574-1.401-5.816-1.014-2.44-.883-1.285-.385-.92 0 0" fill="#d74b29"/>
<path transform="matrix(1,0,0,-1,382.0058,213.75351)" d="M0 0C.059-4.407-.074-8.829-.011-13.24-.002-13.891-.007-14.568 0-15.156L-14.714-29.418-13.445-30.96 .136-42.913C-.131-45.692 .419-48.406 .201-51.198-.07-52.124-6.57-57.501-7.773-58.663-8.922-59.771-10.093-61.254-11.282-62.438-11.844-63-14.778-65.357-14.692-65.858-9.956-70.854-4.606-75.173 .376-79.899 .441-80.948 .662-82.123 .734-83.135 .758-83.486 .553-83.819 .561-84.133 .586-85.162 .964-86.351 .756-87.467 .479-88.929-8.416-96.018-9.762-97.882L-10.828-98.47-14.692-102.852 .52-117.001C1.134-118.073 .184-119.944 .507-121.256H-9.51C-9.589-121.256-9.799-121.562-10.019-121.287-16.351-115.635-22.315-109.55-28.651-103.901-28.87-103.706-29.108-103.525-29.418-103.525L-10.164-84.426-29.676-65.897-9.895-47.141-29.923-29.805-9.639-11.299-21.048-.002C-18.979 .046-16.897-.057-14.826-.011-9.832 .101-4.99-.035 0 0" fill="#446d55"/>
<path transform="matrix(1,0,0,-1,229.3316,214.26709)" d="M0 0C3.801 0 7.612-.002 11.415 .002V-69.489L-.507-69.362Z" fill="#e49e2f"/>
<path transform="matrix(1,0,0,-1,376.265,152.77701)" d="M0 0C5.305-7.266 11.151-14.546 16.086-22.11 16.32-22.466 16.709-22.743 16.644-23.211L-27.482-23.726-5.674 6.982C-5.379 7.216-5.016 7.131-4.769 6.86-3.373 4.937-1.936 3.046-.535 1.129-.264 .758-.214 .291 0 0" fill="#446d55"/>
<path transform="matrix(1,0,0,-1,242.2658,347.083)" d="M0 0-.254 30.829C6.266 31.019 12.737 31.046 19.276 30.829L19.274 0C12.855-.033 6.419-.018 0 0" fill="#d74b29"/>
<path transform="matrix(1,0,0,-1,210.5643,345.7984)" d="M0 0-.391 29.555 18.007 29.544V-1.285C13.438-1.25 8.197-1.661 3.747-.957 2.453-.752 1.21-.214 0 0" fill="#d74b29"/>
<path transform="matrix(1,0,0,-1,299.8356,181.12772)" d="M0 0C.308-10.268-.564-20.557-.253-30.829-5.399-30.65-10.589-31.483-15.614-30.587-16.014-28.041-15.449-25.529-15.459-22.982-15.473-19.252-15.767-15.405-15.724-11.56Z" fill="#d74b29"/>
<path transform="matrix(1,0,0,-1,299.582,176.7604)" d="M0 0C.157-1.444 .21-2.912 .254-4.367L-15.47-15.927C-15.468-15.756-15.47 12.93-15.47 13.102-14.787 12.906-14.138 12.263-13.578 11.807-9.973 8.879-6.473 5.812-2.91 2.832-1.927 2.012-.136 1.258 0 0" fill="#e49e2f"/>
<path transform="matrix(1,0,0,-1,358.9271,189.09381)" d="M0 0C-2.351-1.536-16.235-14.422-17.633-14.38-18.582-14.35-28.802-1.687-30.685-.382Z" fill="#d74b29"/>
<path transform="matrix(1,0,0,-1,388.0924,188.83429)" d="M0 0-12.554-14.909-27.644 0Z" fill="#d74b29"/>
<path transform="matrix(1,0,0,-1,288.6767,277.2071)" d="M0 0C-.992 1.359-1.638 2.523-2.536 3.854Z" fill="#e49e2f"/>
<path transform="matrix(1,0,0,-1,294.256,290.0521)" d="M0 0C.085 .006 .17-.004 .254 0L.127-.251Z" fill="#d74b29"/>
<path transform="matrix(1,0,0,-1,294.2418,258.85353)" d="M0 0C.568-.175 2.456-.337 3.174-.382 10.019-.8 17.148-.277 23.971-.103 25.682-.059 31.185-.467 32.315-.079 33.162 .21 34.392 6.961 33.281 8.023 27.806 16.464 23.259 26.6 17.618 34.803 17.153 35.48 16.427 36.89 15.409 36.59 14.887 36.435 12.381 31.755 11.89 30.886 7.474 23.075 3.402 15.049-1.046 7.254-1.999 5.493-2.311 .717 0 0M16.056 18.726C20.071 18.726 23.324 15.429 23.324 11.365 23.324 7.299 20.071 4.003 16.056 4.003 12.044 4.003 8.789 7.299 8.789 11.365 8.789 15.429 12.044 18.726 16.056 18.726" fill="#d74b29"/>
<path transform="matrix(1,0,0,-1,307.7447,267.6105)" d="M0 0C-2.48-.876-4.282-3.067-4.686-5.696-5.09-8.326-4.029-10.967-1.927-12.564 1.101-14.867 5.381-14.361 7.806-11.415 10.231-8.466 9.949-4.112 7.166-1.508 5.235 .295 2.48 .876 0 0" fill="#d74b29"/>
<path transform="matrix(1,0,0,-1,323.4214,290.5656)" d="M0 0C-.168 .004-27.735 .561-28.911 .514L-29.038 .262-29.165 .514C-29.414 .5-29.697 .55-29.925 .514-32.595 .1-31.664-2.761-30.986-4.542-29.538-8.354-26.872-12.969-24.898-16.615-21.179-23.48-16.954-30.073-13.314-36.988L2.488-10.354C3.506-8.394 4.85-6.519 5.069-4.236 5.514 .367 3.834-.098 0 0M-18.975-16.01C-21.675-11.437-19.506-5.351-14.007-4.688-11.212-4.35-7.78-6.633-6.722-9.25-3.542-17.102-14.231-24.048-18.975-16.01" fill="#d74b29"/>
<path transform="matrix(1,0,0,-1,0,595.276)" d="M261.559 311.322H250.88899V381.00898H261.559Z" fill="#d74b29"/>
<path transform="matrix(1,0,0,-1,274.7889,214.2496)" d="M0 0H2.676L15.674-20.036C15.674-20.036 16.578-20.902 15.864-22.014 15.151-23.128 .987-43.621 .987-43.621H-3.613L-3.627-3.675C-3.627-1.645-2.003 0 0 0" fill="#d74b29"/>
<path transform="matrix(1,0,0,-1,271.1608,257.8702)" d="M0 0H4.614L19.302-21.972C19.302-21.972 20.207-22.839 19.492-23.951 18.778-25.064 4.614-45.557 4.614-45.557H.017Z" fill="#d74b29"/>
<path transform="matrix(1,0,0,-1,271.1608,303.4275)" d="M0 0H4.614L19.302-21.972C19.302-21.972 20.207-22.839 19.492-23.951 18.778-25.064 4.994-43.656 4.994-43.656H.017Z" fill="#d74b29"/>
<path transform="matrix(1,0,0,-1,352.3949,214.2496)" d="M0 0H-6.305L-19.304-20.036C-19.304-20.036-20.207-20.902-19.492-22.014-18.778-23.128-4.614-43.621-4.614-43.621H-.017Z" fill="#d74b29"/>
<path transform="matrix(1,0,0,-1,352.3949,257.8702)" d="M0 0H-4.614L-19.304-21.972C-19.304-21.972-20.207-22.839-19.492-23.951-18.778-25.064-4.614-45.557-4.614-45.557H-.017Z" fill="#d74b29"/>
<path transform="matrix(1,0,0,-1,352.3949,303.4275)" d="M0 0H-4.614L-19.304-21.972C-19.304-21.972-20.207-22.839-19.492-23.951-18.778-25.064-4.994-43.656-4.994-43.656H-.017Z" fill="#d74b29"/>
</g>
</svg>
